<svg version="1.1" viewBox="0.0 0.0 1017.1732283464567 1072.8530183727034" fill="none" stroke="none" stroke-linecap="square" stroke-miterlimit="10" xmlns:xlink="http://www.w3.org/1999/xlink" xmlns="http://www.w3.org/2000/svg"><clipPath id="p.0"><path d="m0 0l1017.1732 0l0 1072.853l-1017.1732 0l0 -1072.853z" clip-rule="nonzero"/></clipPath><g clip-path="url(#p.0)"><path fill="#ffffff" d="m0 0l1017.1732 0l0 1072.853l-1017.1732 0z" fill-rule="evenodd"/><path fill="#56b4e9" fill-opacity="0.149" d="m0 0.7271609l1017.3543 0l0 1071.937l-1017.3543 0z" fill-rule="evenodd"/><path fill="#56b4e9" fill-opacity="0.149" d="m0.13724515 0l1017.3543 0l0 287.2126l-1017.3543 0z" fill-rule="evenodd"/><path fill="#56b4e9" d="m110.72368 934.01465c0 -1.7886963 1.4500275 -3.2387695 3.2387161 -3.2387695l219.44382 0c0.8589783 0 1.6827393 0.34124756 2.2901306 0.9486084c0.60736084 0.6074219 0.9485779 1.4311523 0.9485779 2.2901611l0 32.38867c0 1.7886963 -1.4500122 3.2387085 -3.2387085 3.2387085l-219.44382 0c-1.7886887 0 -3.2387161 -1.4500122 -3.2387161 -3.2387085z" fill-rule="evenodd"/><path fill="#000000" d="m142.51602 950.19183q0 2.0625 -0.328125 3.703125q-0.3125 1.625 -1.03125 2.765625q-0.703125 1.125 -1.859375 1.734375q-1.140625 0.59375 -2.78125 0.59375q-2.0625 0 -3.390625 -1.046875q-1.3125 -1.046875 -1.953125 -3.015625q-0.625 -1.984375 -0.625 -4.734375q0 -2.78125 0.578125 -4.75q0.578125 -1.984375 1.890625 -3.03125q1.3125 -1.0625 3.5 -1.0625q2.046875 0 3.375 1.046875q1.34375 1.046875 1.984375 3.03125q0.640625 1.96875 0.640625 4.765625zm-8.375 0q0 1.953125 0.21875 3.265625q0.21875 1.296875 0.734375 1.953125q0.515625 0.65625 1.421875 0.65625q0.90625 0 1.421875 -0.640625q0.53125 -0.65625 0.75 -1.953125q0.21875 -1.3125 0.21875 -3.28125q0 -1.96875 -0.21875 -3.28125q-0.21875 -1.3125 -0.75 -1.96875q-0.515625 -0.65625 -1.421875 -0.65625q-0.90625 0 -1.421875 0.65625q-0.515625 0.65625 -0.734375 1.96875q-0.21875 1.3125 -0.21875 3.28125zm22.582031 5.015625l-2.0625 0l0 3.546875l-3.546875 0l0 -3.546875l-7.3125 0l0 -2.53125l7.515625 -11.0625l3.34375 0l0 10.78125l2.0625 0l0 2.8125zm-5.609375 -2.8125l0 -2.90625q0 -0.421875 0.015625 -0.984375q0.03125 -0.5625 0.046875 -1.125q0.03125 -0.5625 0.046875 -1.0q0.03125 -0.4375 0.046875 -0.609375l-0.09375 0q-0.21875 0.484375 -0.46875 0.9375q-0.25 0.4375 -0.578125 0.9375l-3.140625 4.75l4.125 0zm6.7226562 1.390625l0 -2.9375l6.296875 0l0 2.9375l-6.296875 0zm16.128906 -5.453125l-3.09375 0l0 10.421875l-3.578125 0l0 -10.421875l-1.96875 0l0 -1.71875l1.96875 -0.96875l0 -0.953125q0 -1.671875 0.5625 -2.609375q0.578125 -0.9375 1.609375 -1.3125q1.03125 -0.375 2.453125 -0.375q1.046875 0 1.890625 0.171875q0.859375 0.15625 1.40625 0.375l-0.921875 2.625q-0.40625 -0.125 -0.890625 -0.234375q-0.46875 -0.109375 -1.09375 -0.109375q-0.75 0 -1.09375 0.453125q-0.34375 0.453125 -0.34375 1.15625l0 0.8125l3.09375 0l0 2.6875zm13.949219 3.84375q0 1.640625 -0.4375 2.90625q-0.4375 1.265625 -1.28125 2.140625q-0.828125 0.875 -2.015625 1.328125q-1.171875 0.4375 -2.65625 0.4375q-1.375 0 -2.53125 -0.4375q-1.15625 -0.453125 -2.015625 -1.328125q-0.84375 -0.875 -1.3125 -2.140625q-0.453125 -1.265625 -0.453125 -2.90625q0 -2.171875 0.765625 -3.6875q0.78125 -1.515625 2.203125 -2.296875q1.4375 -0.78125 3.421875 -0.78125q1.84375 0 3.265625 0.78125q1.421875 0.78125 2.234375 2.296875q0.8125 1.515625 0.8125 3.6875zm-9.0625 0q0 1.296875 0.28125 2.171875q0.28125 0.875 0.875 1.328125q0.609375 0.4375 1.5625 0.4375q0.953125 0 1.546875 -0.4375q0.59375 -0.453125 0.859375 -1.328125q0.28125 -0.875 0.28125 -2.171875q0 -1.296875 -0.28125 -2.15625q-0.265625 -0.859375 -0.875 -1.296875q-0.59375 -0.4375 -1.546875 -0.4375q-1.421875 0 -2.0625 0.984375q-0.640625 0.96875 -0.640625 2.90625zm19.328125 -6.765625q0.265625 0 0.625 0.03125q0.359375 0.015625 0.578125 0.0625l-0.265625 3.359375q-0.171875 -0.0625 -0.5 -0.09375q-0.3125 -0.03125 -0.546875 -0.03125q-0.703125 0 -1.359375 0.1875q-0.640625 0.171875 -1.15625 0.5625q-0.515625 0.390625 -0.8125 1.03125q-0.296875 0.640625 -0.296875 1.5625l0 6.671875l-3.578125 0l0 -13.109375l2.703125 0l0.53125 2.203125l0.171875 0q0.390625 -0.65625 0.96875 -1.21875q0.578125 -0.5625 1.328125 -0.890625q0.75 -0.328125 1.609375 -0.328125zm8.9921875 0q1.8125 0 3.125 0.703125q1.3125 0.6875 2.03125 2.015625q0.71875 1.3125 0.71875 3.234375l0 1.734375l-8.453125 0q0.0625 1.5 0.90625 2.375q0.84375 0.859375 2.359375 0.859375q1.25 0 2.296875 -0.25q1.046875 -0.265625 2.140625 -0.78125l0 2.765625q-0.96875 0.46875 -2.03125 0.6875q-1.0625 0.234375 -2.5625 0.234375q-1.96875 0 -3.5 -0.71875q-1.515625 -0.734375 -2.375 -2.21875q-0.859375 -1.5 -0.859375 -3.75q0 -2.296875 0.78125 -3.828125q0.78125 -1.53125 2.171875 -2.296875q1.390625 -0.765625 3.25 -0.765625zm0.015625 2.53125q-1.03125 0 -1.71875 0.671875q-0.6875 0.671875 -0.796875 2.09375l5.015625 0q-0.015625 -0.796875 -0.296875 -1.40625q-0.265625 -0.625 -0.8125 -0.984375q-0.546875 -0.375 -1.390625 -0.375zm14.0859375 11.046875q-1.953125 0 -3.328125 -0.703125q-1.359375 -0.71875 -2.078125 -2.203125q-0.71875 -1.484375 -0.71875 -3.8125q0 -2.40625 0.8125 -3.921875q0.8125 -1.515625 2.265625 -2.21875q1.453125 -0.71875 3.359375 -0.71875q1.359375 0 2.34375 0.265625q1.0 0.25 1.734375 0.625l-1.0625 2.765625q-0.84375 -0.34375 -1.578125 -0.5625q-0.71875 -0.21875 -1.4375 -0.21875q-0.9375 0 -1.5625 0.4375q-0.625 0.4375 -0.9375 1.328125q-0.296875 0.875 -0.296875 2.203125q0 1.296875 0.328125 2.15625q0.328125 0.84375 0.953125 1.265625q0.625 0.421875 1.515625 0.421875q1.109375 0 1.96875 -0.296875q0.875 -0.3125 1.703125 -0.84375l0 3.0625q-0.828125 0.515625 -1.734375 0.734375q-0.890625 0.234375 -2.25 0.234375zm12.386719 -13.609375q2.625 0 4.03125 1.15625q1.40625 1.140625 1.40625 3.484375l0 8.734375l-2.484375 0l-0.703125 -1.78125l-0.09375 0q-0.5625 0.703125 -1.15625 1.15625q-0.578125 0.4375 -1.34375 0.640625q-0.75 0.21875 -1.84375 0.21875q-1.15625 0 -2.078125 -0.4375q-0.921875 -0.453125 -1.453125 -1.375q-0.515625 -0.921875 -0.515625 -2.34375q0 -2.078125 1.453125 -3.0625q1.46875 -1.0 4.40625 -1.109375l2.265625 -0.0625l0 -0.578125q0 -1.03125 -0.546875 -1.5q-0.53125 -0.484375 -1.484375 -0.484375q-0.953125 0 -1.875 0.265625q-0.90625 0.265625 -1.828125 0.671875l-1.171875 -2.40625q1.03125 -0.546875 2.328125 -0.859375q1.296875 -0.328125 2.6875 -0.328125zm1.890625 7.296875l-1.375 0.046875q-1.734375 0.046875 -2.421875 0.625q-0.671875 0.578125 -0.671875 1.515625q0 0.8125 0.484375 1.171875q0.484375 0.34375 1.25 0.34375q1.15625 0 1.9375 -0.671875q0.796875 -0.6875 0.796875 -1.953125l0 -1.078125zm16.371094 2.1875q0 1.328125 -0.625 2.25q-0.625 0.921875 -1.875 1.40625q-1.234375 0.46875 -3.09375 0.46875q-1.359375 0 -2.34375 -0.1875q-0.984375 -0.171875 -1.96875 -0.578125l0 -2.953125q1.0625 0.484375 2.28125 0.796875q1.234375 0.3125 2.15625 0.3125q1.046875 0 1.484375 -0.3125q0.453125 -0.3125 0.453125 -0.8125q0 -0.328125 -0.1875 -0.59375q-0.171875 -0.265625 -0.765625 -0.59375q-0.59375 -0.34375 -1.875 -0.875q-1.234375 -0.515625 -2.03125 -1.046875q-0.78125 -0.53125 -1.171875 -1.25q-0.375 -0.71875 -0.375 -1.828125q0 -1.828125 1.40625 -2.734375q1.421875 -0.921875 3.78125 -0.921875q1.21875 0 2.328125 0.25q1.109375 0.234375 2.28125 0.78125l-1.078125 2.578125q-0.96875 -0.421875 -1.828125 -0.6875q-0.859375 -0.28125 -1.75 -0.28125q-0.796875 0 -1.203125 0.21875q-0.390625 0.203125 -0.390625 0.640625q0 0.3125 0.203125 0.5625q0.21875 0.25 0.796875 0.546875q0.59375 0.296875 1.75 0.765625q1.109375 0.453125 1.921875 0.953125q0.828125 0.5 1.265625 1.234375q0.453125 0.734375 0.453125 1.890625zm8.3046875 1.28125q0.59375 0 1.140625 -0.109375q0.5625 -0.125 1.109375 -0.3125l0 2.671875q-0.5625 0.25 -1.421875 0.421875q-0.84375 0.171875 -1.859375 0.171875q-1.171875 0 -2.109375 -0.375q-0.921875 -0.390625 -1.453125 -1.328125q-0.53125 -0.953125 -0.53125 -2.640625l0 -6.3125l-1.71875 0l0 -1.515625l1.96875 -1.1875l1.03125 -2.765625l2.296875 0l0 2.78125l3.65625 0l0 2.6875l-3.65625 0l0 6.3125q0 0.75 0.421875 1.125q0.421875 0.375 1.125 0.375z" fill-rule="nonzero"/><path fill="#000000" fill-opacity="0.0" d="m396.4794 332.5637l62.362213 0l0 71.1181l-62.362213 0z" fill-rule="evenodd"/><path fill="#000000" d="m431.05093 377.16956l-4.015625 0l0 -11.015625q0 -0.453125 0 -1.125q0.015625 -0.671875 0.046875 -1.375q0.03125 -0.71875 0.046875 -1.296875q-0.140625 0.171875 -0.578125 0.59375q-0.4375 0.40625 -0.8125 0.71875l-2.1875 1.765625l-1.9375 -2.421875l6.125 -4.890625l3.3125 0l0 19.046875z" fill-rule="nonzero"/><path fill="#000000" fill-opacity="0.0" d="m508.7511 718.7031l0 128.5669l170.17322 0" fill-rule="evenodd"/><path stroke="#595959" stroke-width="4.0" stroke-linejoin="round" stroke-linecap="butt" d="m508.7511 718.70306l0 128.56696l146.17322 0" fill-rule="evenodd"/><path fill="#595959" stroke="#595959" stroke-width="4.0" stroke-linecap="butt" d="m654.9243 853.87695l18.152405 -6.6069336l-18.152405 -6.6069336z" fill-rule="evenodd"/><path fill="#000000" fill-opacity="0.0" d="m508.75012 461.60306l0 15.020905l0.0630188 0l0 15.026337" fill-rule="evenodd"/><path stroke="#595959" stroke-width="4.0" stroke-linejoin="round" stroke-linecap="butt" d="m508.75012 461.60306l0 15.020905l0.0630188 0l0 15.026337" fill-rule="evenodd"/><path fill="#000000" fill-opacity="0.0" d="m285.47113 101.93074l446.6772 0l0 122.83464l-446.6772 0z" fill-rule="evenodd"/><path fill="#000000" d="m335.93448 154.21843l-2.875 0l0 -24.75l13.78125 0l0 2.53125l-10.90625 0l0 9.078125l10.234375 0l0 2.53125l-10.234375 0l0 10.609375zm30.597748 -9.3125q0 2.28125 -0.59375 4.078125q-0.59375 1.796875 -1.71875 3.03125q-1.109375 1.234375 -2.703125 1.890625q-1.578125 0.65625 -3.578125 0.65625q-1.859375 0 -3.40625 -0.65625q-1.546875 -0.65625 -2.671875 -1.890625q-1.125 -1.234375 -1.75 -3.03125q-0.609375 -1.796875 -0.609375 -4.078125q0 -3.046875 1.03125 -5.1875q1.03125 -2.140625 2.953125 -3.265625q1.921875 -1.125 4.578125 -1.125q2.53125 0 4.4375 1.140625q1.90625 1.125 2.96875 3.265625q1.0625 2.140625 1.0625 5.171875zm-14.125 0q0 2.234375 0.59375 3.875q0.59375 1.640625 1.828125 2.546875q1.234375 0.890625 3.1875 0.890625q1.921875 0 3.15625 -0.890625q1.25 -0.90625 1.84375 -2.546875q0.59375 -1.640625 0.59375 -3.875q0 -2.21875 -0.59375 -3.828125q-0.59375 -1.625 -1.828125 -2.5q-1.234375 -0.875 -3.203125 -0.875q-2.890625 0 -4.234375 1.90625q-1.34375 1.90625 -1.34375 5.296875zm27.404175 -9.578125q0.5625 0 1.171875 0.0625q0.609375 0.046875 1.078125 0.15625l-0.34375 2.609375q-0.46875 -0.125 -1.03125 -0.1875q-0.546875 -0.0625 -1.046875 -0.0625q-1.109375 0 -2.109375 0.453125q-0.984375 0.4375 -1.734375 1.28125q-0.734375 0.828125 -1.15625 2.015625q-0.421875 1.171875 -0.421875 2.609375l0 9.953125l-2.828125 0l0 -18.5625l2.328125 0l0.3125 3.421875l0.109375 0q0.578125 -1.03125 1.390625 -1.875q0.8125 -0.859375 1.890625 -1.359375q1.078125 -0.515625 2.390625 -0.515625zm12.888855 0q2.375 0 4.0625 1.046875q1.6875 1.046875 2.578125 2.9375q0.90625 1.890625 0.90625 4.40625l0 1.75l-12.8125 0q0.046875 3.265625 1.625 4.984375q1.578125 1.703125 4.4375 1.703125q1.75 0 3.109375 -0.3125q1.359375 -0.328125 2.8125 -0.953125l0 2.46875q-1.40625 0.625 -2.796875 0.90625q-1.375 0.296875 -3.25 0.296875q-2.671875 0 -4.671875 -1.09375q-1.984375 -1.09375 -3.078125 -3.203125q-1.09375 -2.125 -1.09375 -5.1875q0 -3.0 1.0 -5.1875q1.0 -2.1875 2.84375 -3.375q1.84375 -1.1875 4.328125 -1.1875zm-0.03125 2.296875q-2.25 0 -3.59375 1.484375q-1.34375 1.46875 -1.59375 4.109375l9.828125 0q-0.03125 -1.65625 -0.53125 -2.921875q-0.484375 -1.265625 -1.5 -1.96875q-1.015625 -0.703125 -2.609375 -0.703125zm19.781555 16.9375q-2.5 0 -4.421875 -1.03125q-1.90625 -1.046875 -2.96875 -3.15625q-1.0625 -2.109375 -1.0625 -5.328125q0 -3.375 1.125 -5.515625q1.125 -2.140625 3.09375 -3.171875q1.984375 -1.03125 4.515625 -1.03125q1.375 0 2.671875 0.28125q1.296875 0.28125 2.125 0.703125l-0.84375 2.34375q-0.84375 -0.328125 -1.953125 -0.59375q-1.109375 -0.28125 -2.078125 -0.28125q-1.921875 0 -3.203125 0.828125q-1.28125 0.828125 -1.921875 2.4375q-0.625 1.609375 -0.625 3.96875q0 2.25 0.609375 3.84375q0.625 1.578125 1.84375 2.421875q1.234375 0.84375 3.078125 0.84375q1.46875 0 2.65625 -0.3125q1.1875 -0.3125 2.15625 -0.75l0 2.515625q-0.9375 0.46875 -2.078125 0.71875q-1.140625 0.265625 -2.71875 0.265625zm16.123596 -19.203125q3.3125 0 4.921875 1.5q1.609375 1.484375 1.609375 4.75l0 12.609375l-2.046875 0l-0.546875 -2.75l-0.125 0q-0.78125 1.015625 -1.640625 1.703125q-0.84375 0.6875 -1.953125 1.046875q-1.09375 0.34375 -2.703125 0.34375q-1.703125 0 -3.015625 -0.59375q-1.3125 -0.59375 -2.0625 -1.796875q-0.75 -1.203125 -0.75 -3.046875q0 -2.78125 2.203125 -4.265625q2.203125 -1.5 6.703125 -1.625l3.203125 -0.140625l0 -1.125q0 -2.40625 -1.046875 -3.375q-1.03125 -0.96875 -2.90625 -0.96875q-1.453125 0 -2.78125 0.421875q-1.3125 0.421875 -2.5 1.0l-0.859375 -2.125q1.25 -0.65625 2.875 -1.109375q1.625 -0.453125 3.421875 -0.453125zm3.75 9.71875l-2.828125 0.109375q-3.46875 0.140625 -4.890625 1.140625q-1.421875 1.0 -1.421875 2.828125q0 1.59375 0.96875 2.359375q0.96875 0.75 2.5625 0.75q2.46875 0 4.03125 -1.359375q1.578125 -1.375 1.578125 -4.125l0 -1.703125zm20.57843 4.0625q0 1.78125 -0.890625 3.0q-0.890625 1.203125 -2.546875 1.8125q-1.640625 0.609375 -3.9375 0.609375q-1.9375 0 -3.359375 -0.3125q-1.421875 -0.296875 -2.484375 -0.859375l0 -2.59375q1.125 0.5625 2.703125 1.015625q1.578125 0.453125 3.21875 0.453125q2.40625 0 3.484375 -0.765625q1.078125 -0.78125 1.078125 -2.125q0 -0.765625 -0.4375 -1.34375q-0.421875 -0.578125 -1.4375 -1.125q-1.015625 -0.5625 -2.8125 -1.21875q-1.78125 -0.671875 -3.078125 -1.34375q-1.28125 -0.671875 -1.984375 -1.640625q-0.703125 -0.96875 -0.703125 -2.5q0 -2.359375 1.90625 -3.609375q1.90625 -1.265625 5.0 -1.265625q1.671875 0 3.140625 0.328125q1.46875 0.328125 2.734375 0.890625l-0.953125 2.25q-1.15625 -0.484375 -2.453125 -0.828125q-1.296875 -0.34375 -2.65625 -0.34375q-1.953125 0 -3.0 0.65625q-1.03125 0.640625 -1.03125 1.75q0 0.859375 0.484375 1.421875q0.484375 0.5625 1.546875 1.0625q1.0625 0.484375 2.8125 1.140625q1.75 0.640625 3.015625 1.328125q1.265625 0.6875 1.953125 1.65625q0.6875 0.96875 0.6875 2.5zm10.50769 3.109375q0.703125 0 1.421875 -0.109375q0.734375 -0.125 1.1875 -0.296875l0 2.1875q-0.484375 0.21875 -1.359375 0.375q-0.875 0.15625 -1.703125 0.15625q-1.46875 0 -2.671875 -0.515625q-1.203125 -0.515625 -1.921875 -1.75q-0.71875 -1.25 -0.71875 -3.421875l0 -11.015625l-2.640625 0l0 -1.359375l2.65625 -1.109375l1.109375 -4.03125l1.703125 0l0 4.296875l5.421875 0l0 2.203125l-5.421875 0l0 10.921875q0 1.75 0.796875 2.609375q0.8125 0.859375 2.140625 0.859375zm9.171112 -16.59375l0 18.5625l-2.796875 0l0 -18.5625l2.796875 0zm-1.359375 -6.9375q0.6875 0 1.1875 0.453125q0.5 0.453125 0.5 1.390625q0 0.9375 -0.5 1.390625q-0.5 0.453125 -1.1875 0.453125q-0.734375 0 -1.21875 -0.453125q-0.484375 -0.453125 -0.484375 -1.390625q0 -0.9375 0.484375 -1.390625q0.484375 -0.453125 1.21875 -0.453125zm16.096375 6.609375q3.296875 0 4.984375 1.625q1.703125 1.609375 1.703125 5.171875l0 12.09375l-2.78125 0l0 -11.90625q0 -2.3125 -1.0625 -3.453125q-1.046875 -1.15625 -3.234375 -1.15625q-3.078125 0 -4.34375 1.75q-1.25 1.734375 -1.25 5.046875l0 9.71875l-2.796875 0l0 -18.5625l2.265625 0l0.421875 2.6875l0.15625 0q0.59375 -0.984375 1.5 -1.65625q0.921875 -0.671875 2.046875 -1.015625q1.140625 -0.34375 2.390625 -0.34375zm17.654236 27.21875q-3.65625 0 -5.640625 -1.359375q-1.96875 -1.359375 -1.96875 -3.8125q0 -1.75 1.109375 -2.984375q1.109375 -1.234375 3.0625 -1.640625q-0.71875 -0.34375 -1.234375 -1.015625q-0.515625 -0.6875 -0.515625 -1.5625q0 -1.015625 0.5625 -1.78125q0.5625 -0.78125 1.734375 -1.484375q-1.453125 -0.59375 -2.359375 -2.0q-0.90625 -1.421875 -0.90625 -3.296875q0 -2.0 0.828125 -3.40625q0.828125 -1.421875 2.390625 -2.15625q1.578125 -0.75 3.828125 -0.75q0.484375 0 0.984375 0.046875q0.5 0.03125 0.953125 0.109375q0.453125 0.078125 0.796875 0.171875l6.3594055 0l0 1.8125l-3.4062805 0.421875q0.5000305 0.671875 0.8281555 1.609375q0.34375 0.921875 0.34375 2.046875q0 2.78125 -1.8750305 4.421875q-1.875 1.625 -5.15625 1.625q-0.78125 0 -1.59375 -0.125q-0.828125 0.453125 -1.265625 1.015625q-0.4375 0.546875 -0.4375 1.28125q0 0.546875 0.328125 0.875q0.34375 0.3125 0.96875 0.453125q0.625 0.140625 1.5 0.140625l3.265625 0q3.03125 0 4.6406555 1.28125q1.625 1.265625 1.625 3.703125q0 3.078125 -2.5 4.71875q-2.5000305 1.640625 -7.2500305 1.640625zm0.09375 -2.203125q2.296875 0 3.8125 -0.46875q1.515625 -0.453125 2.265625 -1.328125q0.75 -0.875 0.75 -2.078125q0 -1.109375 -0.515625 -1.6875q-0.5 -0.5625 -1.484375 -0.75q-0.96875 -0.203125 -2.390625 -0.203125l-3.21875 0q-1.25 0 -2.1875 0.390625q-0.9375 0.390625 -1.4375 1.140625q-0.5 0.765625 -0.5 1.90625q0 1.5 1.265625 2.28125q1.28125 0.796875 3.640625 0.796875zm0.71875 -14.828125q2.015625 0 3.03125 -1.015625q1.015625 -1.015625 1.015625 -2.96875q0 -2.078125 -1.03125 -3.109375q-1.03125 -1.046875 -3.046875 -1.046875q-1.9375 0 -2.984375 1.078125q-1.03125 1.078125 -1.03125 3.140625q0 1.890625 1.046875 2.90625q1.0625 1.015625 3.0 1.015625zm24.644806 -9.859375l0 18.5625l-2.796875 0l0 -18.5625l2.796875 0zm-1.359375 -6.9375q0.6875 0 1.1875 0.453125q0.5 0.453125 0.5 1.390625q0 0.9375 -0.5 1.390625q-0.5 0.453125 -1.1875 0.453125q-0.734375 0 -1.21875 -0.453125q-0.484375 -0.453125 -0.484375 -1.390625q0 -0.9375 0.484375 -1.390625q0.484375 -0.453125 1.21875 -0.453125zm16.096375 6.609375q3.296875 0 4.984375 1.625q1.703125 1.609375 1.703125 5.171875l0 12.09375l-2.78125 0l0 -11.90625q0 -2.3125 -1.0625 -3.453125q-1.046875 -1.15625 -3.234375 -1.15625q-3.078125 0 -4.34375 1.75q-1.25 1.734375 -1.25 5.046875l0 9.71875l-2.796875 0l0 -18.5625l2.265625 0l0.421875 2.6875l0.15625 0q0.59375 -0.984375 1.5 -1.65625q0.921875 -0.671875 2.046875 -1.015625q1.140625 -0.34375 2.390625 -0.34375zm21.20111 0q3.46875 0 5.53125 2.390625q2.0625 2.375 2.0625 7.171875q0 3.171875 -0.953125 5.328125q-0.9375 2.140625 -2.65625 3.25q-1.71875 1.09375 -4.0625 1.09375q-1.46875 0 -2.59375 -0.390625q-1.109375 -0.390625 -1.90625 -1.046875q-0.796875 -0.671875 -1.3125 -1.453125l-0.203125 0q0.046875 0.671875 0.125 1.609375q0.078125 0.921875 0.078125 1.609375l0 7.625l-2.828125 0l0 -26.859375l2.3125 0l0.375 2.75l0.140625 0q0.53125 -0.84375 1.3125 -1.546875q0.78125 -0.703125 1.90625 -1.109375q1.125 -0.421875 2.671875 -0.421875zm-0.5 2.375q-1.921875 0 -3.109375 0.75q-1.171875 0.734375 -1.71875 2.21875q-0.53125 1.46875 -0.5625 3.703125l0 0.546875q0 2.359375 0.515625 3.984375q0.515625 1.625 1.703125 2.46875q1.1875 0.84375 3.203125 0.84375q1.734375 0 2.875 -0.921875q1.15625 -0.9375 1.71875 -2.59375q0.578125 -1.671875 0.578125 -3.84375q0 -3.28125 -1.28125 -5.21875q-1.28125 -1.9375 -3.921875 -1.9375zm28.30658 -2.046875l0 18.5625l-2.296875 0l-0.40625 -2.609375l-0.15625 0q-0.578125 0.96875 -1.5 1.625q-0.90625 0.65625 -2.046875 0.984375q-1.140625 0.34375 -2.421875 0.34375q-2.203125 0 -3.703125 -0.703125q-1.484375 -0.71875 -2.234375 -2.203125q-0.75 -1.5 -0.75 -3.84375l0 -12.15625l2.84375 0l0 11.953125q0 2.328125 1.046875 3.46875q1.046875 1.140625 3.203125 1.140625q2.0625 0 3.28125 -0.78125q1.234375 -0.78125 1.765625 -2.28125q0.546875 -1.515625 0.546875 -3.71875l0 -9.78125l2.828125 0zm11.935486 16.59375q0.703125 0 1.421875 -0.109375q0.734375 -0.125 1.1875 -0.296875l0 2.1875q-0.484375 0.21875 -1.359375 0.375q-0.875 0.15625 -1.703125 0.15625q-1.46875 0 -2.671875 -0.515625q-1.203125 -0.515625 -1.921875 -1.75q-0.71875 -1.25 -0.71875 -3.421875l0 -11.015625l-2.640625 0l0 -1.359375l2.65625 -1.109375l1.109375 -4.03125l1.703125 0l0 4.296875l5.421875 0l0 2.203125l-5.421875 0l0 10.921875q0 1.75 0.796875 2.609375q0.8125 0.859375 2.140625 0.859375zm18.374268 -3.109375q0 1.78125 -0.890625 3.0q-0.890625 1.203125 -2.546875 1.8125q-1.640625 0.609375 -3.9375 0.609375q-1.9375 0 -3.359375 -0.3125q-1.421875 -0.296875 -2.484375 -0.859375l0 -2.59375q1.125 0.5625 2.703125 1.015625q1.578125 0.453125 3.21875 0.453125q2.40625 0 3.484375 -0.765625q1.078125 -0.78125 1.078125 -2.125q0 -0.765625 -0.4375 -1.34375q-0.421875 -0.578125 -1.4375 -1.125q-1.015625 -0.5625 -2.8125 -1.21875q-1.78125 -0.671875 -3.078125 -1.34375q-1.28125 -0.671875 -1.984375 -1.640625q-0.703125 -0.96875 -0.703125 -2.5q0 -2.359375 1.90625 -3.609375q1.90625 -1.265625 5.0 -1.265625q1.671875 0 3.140625 0.328125q1.46875 0.328125 2.734375 0.890625l-0.953125 2.25q-1.15625 -0.484375 -2.453125 -0.828125q-1.296875 -0.34375 -2.65625 -0.34375q-1.953125 0 -3.0 0.65625q-1.03125 0.640625 -1.03125 1.75q0 0.859375 0.484375 1.421875q0.484375 0.5625 1.546875 1.0625q1.0625 0.484375 2.8125 1.140625q1.75 0.640625 3.015625 1.328125q1.265625 0.6875 1.953125 1.65625q0.6875 0.96875 0.6875 2.5zm20.467407 -13.78125q3.3125 0 4.921875 1.5q1.609375 1.484375 1.609375 4.75l0 12.609375l-2.046875 0l-0.546875 -2.75l-0.125 0q-0.78125 1.015625 -1.640625 1.703125q-0.84375 0.6875 -1.953125 1.046875q-1.09375 0.34375 -2.703125 0.34375q-1.703125 0 -3.015625 -0.59375q-1.3125 -0.59375 -2.0625 -1.796875q-0.75 -1.203125 -0.75 -3.046875q0 -2.78125 2.203125 -4.265625q2.203125 -1.5 6.703125 -1.625l3.203125 -0.140625l0 -1.125q0 -2.40625 -1.046875 -3.375q-1.03125 -0.96875 -2.90625 -0.96875q-1.453125 0 -2.78125 0.421875q-1.3125 0.421875 -2.5 1.0l-0.859375 -2.125q1.25 -0.65625 2.875 -1.109375q1.625 -0.453125 3.421875 -0.453125zm3.75 9.71875l-2.828125 0.109375q-3.46875 0.140625 -4.890625 1.140625q-1.421875 1.0 -1.421875 2.828125q0 1.59375 0.96875 2.359375q0.96875 0.75 2.5625 0.75q2.46875 0 4.03125 -1.359375q1.578125 -1.375 1.578125 -4.125l0 -1.703125zm17.000244 -9.75q0.5625 0 1.171875 0.0625q0.609375 0.046875 1.078125 0.15625l-0.34375 2.609375q-0.46875 -0.125 -1.03125 -0.1875q-0.546875 -0.0625 -1.046875 -0.0625q-1.109375 0 -2.109375 0.453125q-0.984375 0.4375 -1.734375 1.28125q-0.734375 0.828125 -1.15625 2.015625q-0.421875 1.171875 -0.421875 2.609375l0 9.953125l-2.828125 0l0 -18.5625l2.328125 0l0.3125 3.421875l0.109375 0q0.578125 -1.03125 1.390625 -1.875q0.8125 -0.859375 1.890625 -1.359375q1.078125 -0.515625 2.390625 -0.515625zm12.888855 0q2.375 0 4.0625 1.046875q1.6875 1.046875 2.578125 2.9375q0.90625 1.890625 0.90625 4.40625l0 1.75l-12.8125 0q0.046875 3.265625 1.625 4.984375q1.578125 1.703125 4.4375 1.703125q1.75 0 3.109375 -0.3125q1.359375 -0.328125 2.8125 -0.953125l0 2.46875q-1.40625 0.625 -2.796875 0.90625q-1.375 0.296875 -3.25 0.296875q-2.671875 0 -4.671875 -1.09375q-1.984375 -1.09375 -3.078125 -3.203125q-1.09375 -2.125 -1.09375 -5.1875q0 -3.0 1.0 -5.1875q1.0 -2.1875 2.84375 -3.375q1.84375 -1.1875 4.328125 -1.1875zm-0.03125 2.296875q-2.25 0 -3.59375 1.484375q-1.34375 1.46875 -1.59375 4.109375l9.828125 0q-0.03125 -1.65625 -0.53125 -2.921875q-0.484375 -1.265625 -1.5 -1.96875q-1.015625 -0.703125 -2.609375 -0.703125z" fill-rule="nonzero"/><path fill="#000000" d="m426.89813 176.96864q3.3125 0 4.921875 1.5q1.609375 1.484375 1.609375 4.75l0 12.609375l-2.046875 0l-0.546875 -2.75l-0.125 0q-0.78125 1.015625 -1.640625 1.703125q-0.84375 0.6875 -1.953125 1.046875q-1.09375 0.34375 -2.703125 0.34375q-1.703125 0 -3.015625 -0.59375q-1.3125 -0.59375 -2.0625 -1.796875q-0.75 -1.203125 -0.75 -3.046875q0 -2.78125 2.203125 -4.265625q2.203125 -1.5 6.703125 -1.625l3.203125 -0.140625l0 -1.125q0 -2.40625 -1.046875 -3.375q-1.03125 -0.96875 -2.90625 -0.96875q-1.453125 0 -2.78125 0.421875q-1.3125 0.421875 -2.5 1.0l-0.859375 -2.125q1.25 -0.65625 2.875 -1.109375q1.625 -0.453125 3.421875 -0.453125zm3.75 9.71875l-2.828125 0.109375q-3.46875 0.140625 -4.890625 1.140625q-1.421875 1.0 -1.421875 2.828125q0 1.59375 0.96875 2.359375q0.96875 0.75 2.5625 0.75q2.46875 0 4.03125 -1.359375q1.578125 -1.375 1.578125 -4.125l0 -1.703125zm20.5784 4.0625q0 1.78125 -0.890625 3.0q-0.890625 1.203125 -2.546875 1.8125q-1.640625 0.609375 -3.9375 0.609375q-1.9375 0 -3.359375 -0.3125q-1.421875 -0.296875 -2.484375 -0.859375l0 -2.59375q1.125 0.5625 2.703125 1.015625q1.578125 0.453125 3.21875 0.453125q2.40625 0 3.484375 -0.765625q1.078125 -0.78125 1.078125 -2.125q0 -0.765625 -0.4375 -1.34375q-0.421875 -0.578125 -1.4375 -1.125q-1.015625 -0.5625 -2.8125 -1.21875q-1.78125 -0.671875 -3.078125 -1.34375q-1.28125 -0.671875 -1.984375 -1.640625q-0.703125 -0.96875 -0.703125 -2.5q0 -2.359375 1.90625 -3.609375q1.90625 -1.265625 5.0 -1.265625q1.671875 0 3.140625 0.328125q1.46875 0.328125 2.734375 0.890625l-0.953125 2.25q-1.15625 -0.484375 -2.453125 -0.828125q-1.296875 -0.34375 -2.65625 -0.34375q-1.953125 0 -3.0 0.65625q-1.03125 0.640625 -1.03125 1.75q0 0.859375 0.484375 1.421875q0.484375 0.5625 1.546875 1.0625q1.0625 0.484375 2.8125 1.140625q1.75 0.640625 3.015625 1.328125q1.265625 0.6875 1.953125 1.65625q0.6875 0.96875 0.6875 2.5zm16.523315 0q0 1.78125 -0.890625 3.0q-0.890625 1.203125 -2.546875 1.8125q-1.640625 0.609375 -3.9375 0.609375q-1.9375 0 -3.359375 -0.3125q-1.421875 -0.296875 -2.484375 -0.859375l0 -2.59375q1.125 0.5625 2.703125 1.015625q1.578125 0.453125 3.21875 0.453125q2.40625 0 3.484375 -0.765625q1.078125 -0.78125 1.078125 -2.125q0 -0.765625 -0.4375 -1.34375q-0.421875 -0.578125 -1.4375 -1.125q-1.015625 -0.5625 -2.8125 -1.21875q-1.78125 -0.671875 -3.078125 -1.34375q-1.28125 -0.671875 -1.984375 -1.640625q-0.703125 -0.96875 -0.703125 -2.5q0 -2.359375 1.90625 -3.609375q1.90625 -1.265625 5.0 -1.265625q1.671875 0 3.140625 0.328125q1.46875 0.328125 2.734375 0.890625l-0.953125 2.25q-1.15625 -0.484375 -2.453125 -0.828125q-1.296875 -0.34375 -2.65625 -0.34375q-1.953125 0 -3.0 0.65625q-1.03125 0.640625 -1.03125 1.75q0 0.859375 0.484375 1.421875q0.484375 0.5625 1.546875 1.0625q1.0625 0.484375 2.8125 1.140625q1.75 0.640625 3.015625 1.328125q1.265625 0.6875 1.953125 1.65625q0.6875 0.96875 0.6875 2.5zm11.66394 -13.8125q2.375 0 4.0625 1.046875q1.6875 1.046875 2.578125 2.9375q0.90625 1.890625 0.90625 4.40625l0 1.75l-12.8125 0q0.046875 3.265625 1.625 4.984375q1.578125 1.703125 4.4375 1.703125q1.75 0 3.109375 -0.3125q1.359375 -0.328125 2.8125 -0.953125l0 2.46875q-1.40625 0.625 -2.796875 0.90625q-1.375 0.296875 -3.25 0.296875q-2.671875 0 -4.671875 -1.09375q-1.984375 -1.09375 -3.078125 -3.203125q-1.09375 -2.125 -1.09375 -5.1875q0 -3.0 1.0 -5.1875q1.0 -2.1875 2.84375 -3.375q1.84375 -1.1875 4.328125 -1.1875zm-0.03125 2.296875q-2.25 0 -3.59375 1.484375q-1.34375 1.46875 -1.59375 4.109375l9.828125 0q-0.03125 -1.65625 -0.53125 -2.921875q-0.484375 -1.265625 -1.5 -1.96875q-1.015625 -0.703125 -2.609375 -0.703125zm32.500336 -2.296875q3.0625 0 4.609375 1.609375q1.5625 1.59375 1.5625 5.125l0 12.15625l-2.765625 0l0 -12.015625q0 -2.25 -0.984375 -3.375q-0.96875 -1.125 -2.875 -1.125q-2.703125 0 -3.921875 1.5625q-1.21875 1.546875 -1.21875 4.578125l0 10.375l-2.78125 0l0 -12.015625q0 -1.515625 -0.4375 -2.515625q-0.4375 -1.0 -1.296875 -1.484375q-0.84375 -0.5 -2.140625 -0.5q-1.859375 0 -2.984375 0.765625q-1.109375 0.75 -1.609375 2.25q-0.5 1.5 -0.5 3.6875l0 9.8125l-2.796875 0l0 -18.5625l2.265625 0l0.421875 2.625l0.15625 0q0.546875 -0.953125 1.390625 -1.609375q0.859375 -0.671875 1.90625 -1.0q1.046875 -0.34375 2.234375 -0.34375q2.109375 0 3.53125 0.796875q1.4375 0.78125 2.09375 2.390625l0.140625 0q0.921875 -1.609375 2.515625 -2.390625q1.59375 -0.796875 3.484375 -0.796875zm14.754822 -7.453125l0 6.59375q0 1.125 -0.0625 2.203125q-0.046875 1.0625 -0.078125 1.65625l0.140625 0q0.765625 -1.265625 2.203125 -2.125q1.4375 -0.859375 3.671875 -0.859375q3.5 0 5.5625 2.421875q2.078125 2.40625 2.078125 7.15625q0 3.140625 -0.953125 5.296875q-0.9375 2.140625 -2.671875 3.25q-1.71875 1.09375 -4.078125 1.09375q-2.203125 0 -3.625 -0.8125q-1.40625 -0.828125 -2.15625 -2.015625l-0.234375 0l-0.5625 2.484375l-2.03125 0l0 -26.34375l2.796875 0zm5.421875 9.828125q-2.015625 0 -3.203125 0.78125q-1.171875 0.78125 -1.703125 2.375q-0.515625 1.578125 -0.515625 4.0l0 0.15625q0 3.5 1.171875 5.359375q1.171875 1.84375 4.25 1.84375q2.59375 0 3.890625 -1.890625q1.296875 -1.90625 1.296875 -5.421875q0 -3.59375 -1.28125 -5.390625q-1.28125 -1.8125 -3.90625 -1.8125zm15.822205 16.515625l-2.828125 0l0 -26.34375l2.828125 0l0 26.34375zm13.0651245 -18.890625q2.375 0 4.0625 1.046875q1.6875 1.046875 2.578125 2.9375q0.90625 1.890625 0.90625 4.40625l0 1.75l-12.8125 0q0.046875 3.265625 1.625 4.984375q1.578125 1.703125 4.4375 1.703125q1.75 0 3.109375 -0.3125q1.359375 -0.328125 2.8125 -0.953125l0 2.46875q-1.40625 0.625 -2.796875 0.90625q-1.375 0.296875 -3.25 0.296875q-2.671875 0 -4.671875 -1.09375q-1.984375 -1.09375 -3.078125 -3.203125q-1.09375 -2.125 -1.09375 -5.1875q0 -3.0 1.0 -5.1875q1.0 -2.1875 2.84375 -3.375q1.84375 -1.1875 4.328125 -1.1875zm-0.03125 2.296875q-2.25 0 -3.59375 1.484375q-1.34375 1.46875 -1.59375 4.109375l9.828125 0q-0.03125 -1.65625 -0.53125 -2.921875q-0.484375 -1.265625 -1.5 -1.96875q-1.015625 -0.703125 -2.609375 -0.703125zm18.95343 16.9375q-3.515625 0 -5.578125 -2.40625q-2.046875 -2.40625 -2.046875 -7.140625q0 -4.796875 2.09375 -7.234375q2.09375 -2.453125 5.578125 -2.453125q1.484375 0 2.578125 0.390625q1.109375 0.390625 1.890625 1.046875q0.796875 0.640625 1.34375 1.46875l0.203125 0q-0.0625 -0.515625 -0.140625 -1.421875q-0.0625 -0.921875 -0.0625 -1.5l0 -7.4375l2.8125 0l0 26.34375l-2.265625 0l-0.421875 -2.640625l-0.125 0q-0.53125 0.828125 -1.328125 1.515625q-0.796875 0.671875 -1.90625 1.078125q-1.109375 0.390625 -2.625 0.390625zm0.4375 -2.34375q2.984375 0 4.21875 -1.6875q1.234375 -1.703125 1.234375 -5.03125l0 -0.515625q0 -3.53125 -1.171875 -5.421875q-1.171875 -1.90625 -4.28125 -1.90625q-2.578125 0 -3.875 2.0q-1.28125 1.984375 -1.28125 5.421875q0 3.421875 1.265625 5.28125q1.28125 1.859375 3.890625 1.859375zm13.759705 0.234375q0 -1.1875 0.5625 -1.671875q0.578125 -0.5 1.40625 -0.5q0.875 0 1.453125 0.5q0.59375 0.484375 0.59375 1.671875q0 1.171875 -0.59375 1.703125q-0.578125 0.53125 -1.453125 0.53125q-0.828125 0 -1.40625 -0.53125q-0.5625 -0.53125 -0.5625 -1.703125z" fill-rule="nonzero"/><path fill="#56b4e9" d="m367.5218 332.5637l282.45667 0c6.713867E-4 0 0.0012207031 2.4414062E-4 0.0017089844 6.713867E-4c4.272461E-4 4.5776367E-4 6.713867E-4 0.0010375977 6.713867E-4 0.0016784668l-0.002380371 114.70331c0 7.9162903 -6.4173584 14.33371 -14.333679 14.33371l-253.7893 0c-7.91626 0 -14.333679 -6.4174194 -14.333679 -14.33371l0 -114.70566c0 -0.0013122559 0.0010681152 -0.0023498535 0.0023498535 -0.0023498535z" fill-rule="evenodd"/><path stroke="#4093c3" stroke-width="4.0" stroke-linejoin="round" stroke-linecap="butt" d="m367.5218 332.5637l282.45667 0c6.713867E-4 0 0.0012207031 2.4414062E-4 0.0017089844 6.713867E-4c4.272461E-4 4.5776367E-4 6.713867E-4 0.0010375977 6.713867E-4 0.0016784668l-0.002380371 114.70331c0 7.9162903 -6.4173584 14.33371 -14.333679 14.33371l-253.7893 0c-7.91626 0 -14.333679 -6.4174194 -14.333679 -14.33371l0 -114.70566c0 -0.0013122559 0.0010681152 -0.0023498535 0.0023498535 -0.0023498535z" fill-rule="evenodd"/><path fill="#000000" d="m493.45325 383.86768l0 14.78125q0 2.359375 -1.046875 4.265625q-1.03125 1.890625 -3.140625 3.0q-2.09375 1.109375 -5.28125 1.109375q-4.53125 0 -6.90625 -2.3125q-2.375 -2.3125 -2.375 -6.125l0 -14.71875l4.828125 0l0 13.984375q0 2.828125 1.15625 3.96875q1.15625 1.140625 3.421875 1.140625q1.59375 0 2.578125 -0.546875q1.0 -0.546875 1.46875 -1.6875q0.46875 -1.140625 0.46875 -2.90625l0 -13.953125l4.828125 0zm17.40625 17.65625q0 1.78125 -0.84375 3.015625q-0.828125 1.21875 -2.484375 1.859375q-1.65625 0.625 -4.125 0.625q-1.828125 0 -3.140625 -0.234375q-1.296875 -0.234375 -2.625 -0.78125l0 -3.9375q1.421875 0.640625 3.046875 1.0625q1.640625 0.40625 2.875 0.40625q1.390625 0 1.984375 -0.40625q0.609375 -0.421875 0.609375 -1.09375q0 -0.4375 -0.25 -0.78125q-0.234375 -0.359375 -1.03125 -0.796875q-0.796875 -0.453125 -2.5 -1.171875q-1.640625 -0.6875 -2.703125 -1.390625q-1.046875 -0.703125 -1.5625 -1.65625q-0.5 -0.96875 -0.5 -2.453125q0 -2.421875 1.875 -3.640625q1.890625 -1.234375 5.046875 -1.234375q1.625 0 3.09375 0.328125q1.484375 0.328125 3.046875 1.046875l-1.4375 3.4375q-1.296875 -0.5625 -2.453125 -0.921875q-1.140625 -0.359375 -2.328125 -0.359375q-1.046875 0 -1.578125 0.28125q-0.53125 0.28125 -0.53125 0.859375q0 0.421875 0.265625 0.75q0.28125 0.328125 1.0625 0.734375q0.796875 0.390625 2.328125 1.015625q1.484375 0.609375 2.578125 1.28125q1.09375 0.65625 1.6875 1.640625q0.59375 0.96875 0.59375 2.515625zm10.921875 -12.609375q2.421875 0 4.171875 0.9375q1.75 0.921875 2.703125 2.6875q0.953125 1.765625 0.953125 4.3125l0 2.3125l-11.265625 0q0.078125 2.015625 1.203125 3.171875q1.140625 1.140625 3.15625 1.140625q1.671875 0 3.0625 -0.34375q1.390625 -0.34375 2.859375 -1.03125l0 3.6875q-1.296875 0.640625 -2.71875 0.9375q-1.40625 0.296875 -3.421875 0.296875q-2.625 0 -4.65625 -0.96875q-2.015625 -0.96875 -3.171875 -2.953125q-1.140625 -1.984375 -1.140625 -5.0q0 -3.0625 1.03125 -5.09375q1.046875 -2.046875 2.90625 -3.0625q1.859375 -1.03125 4.328125 -1.03125zm0.03125 3.390625q-1.390625 0 -2.3125 0.890625q-0.90625 0.890625 -1.046875 2.796875l6.6875 0q-0.015625 -1.0625 -0.390625 -1.890625q-0.359375 -0.828125 -1.09375 -1.3125q-0.71875 -0.484375 -1.84375 -0.484375zm21.421875 -3.390625q0.359375 0 0.828125 0.046875q0.484375 0.03125 0.78125 0.09375l-0.359375 4.46875q-0.234375 -0.078125 -0.671875 -0.109375q-0.421875 -0.046875 -0.734375 -0.046875q-0.921875 0 -1.796875 0.234375q-0.859375 0.234375 -1.546875 0.765625q-0.6875 0.515625 -1.09375 1.375q-0.390625 0.84375 -0.390625 2.078125l0 8.890625l-4.765625 0l0 -17.46875l3.609375 0l0.703125 2.9375l0.234375 0q0.515625 -0.890625 1.28125 -1.625q0.78125 -0.75 1.765625 -1.1875q1.0 -0.453125 2.15625 -0.453125z" fill-rule="nonzero"/><path fill="#56b4e9" d="m367.52277 600.4166c0 -5.9386597 4.814209 -10.752869 10.752838 -10.752869l260.95102 0c2.8518066 0 5.586853 1.1328735 7.6033936 3.149414c2.0165405 2.0165405 3.149414 4.751587 3.149414 7.6034546l0 107.53363c0 5.9386597 -4.814209 10.752869 -10.752808 10.752869l-260.95102 0c-5.938629 0 -10.752838 -4.814209 -10.752838 -10.752869z" fill-rule="evenodd"/><path stroke="#4093c3" stroke-width="4.0" stroke-linejoin="round" stroke-linecap="butt" d="m367.52277 600.4166c0 -5.9386597 4.814209 -10.752869 10.752838 -10.752869l260.95102 0c2.8518066 0 5.586853 1.1328735 7.6033936 3.149414c2.0165405 2.0165405 3.149414 4.751587 3.149414 7.6034546l0 107.53363c0 5.9386597 -4.814209 10.752869 -10.752808 10.752869l-260.95102 0c-5.938629 0 -10.752838 -4.814209 -10.752838 -10.752869z" fill-rule="evenodd"/><path fill="#000000" d="m417.19028 647.7893l-3.984375 0l0 -19.046875l10.921875 0l0 3.3125l-6.9375 0l0 4.90625l6.453125 0l0 3.296875l-6.453125 0l0 7.53125zm23.575775 -7.3125q0 1.828125 -0.484375 3.234375q-0.484375 1.40625 -1.421875 2.375q-0.9375 0.96875 -2.25 1.46875q-1.296875 0.5 -2.9375 0.5q-1.53125 0 -2.828125 -0.5q-1.28125 -0.5 -2.21875 -1.46875q-0.9375 -0.96875 -1.453125 -2.375q-0.515625 -1.40625 -0.515625 -3.234375q0 -2.421875 0.859375 -4.09375q0.859375 -1.6875 2.4375 -2.546875q1.59375 -0.875 3.796875 -0.875q2.046875 0 3.625 0.875q1.578125 0.859375 2.484375 2.546875q0.90625 1.671875 0.90625 4.09375zm-10.0625 0q0 1.4375 0.3125 2.421875q0.3125 0.96875 0.96875 1.46875q0.671875 0.484375 1.734375 0.484375q1.0625 0 1.71875 -0.484375q0.65625 -0.5 0.953125 -1.46875q0.3125 -0.984375 0.3125 -2.421875q0 -1.4375 -0.3125 -2.390625q-0.296875 -0.96875 -0.96875 -1.4375q-0.65625 -0.484375 -1.71875 -0.484375q-1.578125 0 -2.296875 1.078125q-0.703125 1.078125 -0.703125 3.234375zm21.466766 -7.515625q0.3125 0 0.703125 0.03125q0.390625 0.03125 0.640625 0.078125l-0.296875 3.734375q-0.1875 -0.078125 -0.546875 -0.109375q-0.359375 -0.03125 -0.625 -0.03125q-0.765625 0 -1.5 0.203125q-0.71875 0.1875 -1.296875 0.625q-0.5625 0.4375 -0.890625 1.15625q-0.328125 0.703125 -0.328125 1.734375l0 7.40625l-3.984375 0l0 -14.5625l3.015625 0l0.578125 2.453125l0.203125 0q0.421875 -0.75 1.0625 -1.359375q0.65625 -0.625 1.484375 -0.984375q0.828125 -0.375 1.78125 -0.375zm10.00238 0q2.015625 0 3.46875 0.78125q1.453125 0.765625 2.25 2.234375q0.796875 1.46875 0.796875 3.59375l0 1.921875l-9.390625 0q0.0625 1.6875 1.0 2.640625q0.953125 0.953125 2.640625 0.953125q1.390625 0 2.546875 -0.28125q1.15625 -0.28125 2.390625 -0.859375l0 3.078125q-1.09375 0.53125 -2.265625 0.78125q-1.171875 0.25 -2.859375 0.25q-2.1875 0 -3.875 -0.8125q-1.6875 -0.8125 -2.640625 -2.453125q-0.953125 -1.65625 -0.953125 -4.171875q0 -2.5625 0.859375 -4.25q0.875 -1.703125 2.421875 -2.546875q1.546875 -0.859375 3.609375 -0.859375zm0.015625 2.828125q-1.15625 0 -1.921875 0.75q-0.75 0.734375 -0.875 2.3125l5.578125 0q-0.015625 -0.875 -0.328125 -1.5625q-0.296875 -0.703125 -0.90625 -1.09375q-0.609375 -0.40625 -1.546875 -0.40625zm15.648895 12.265625q-2.171875 0 -3.703125 -0.78125q-1.515625 -0.796875 -2.3125 -2.453125q-0.78125 -1.65625 -0.78125 -4.234375q0 -2.671875 0.90625 -4.359375q0.90625 -1.6875 2.5 -2.46875q1.609375 -0.796875 3.734375 -0.796875q1.515625 0 2.609375 0.296875q1.109375 0.28125 1.921875 0.6875l-1.171875 3.078125q-0.9375 -0.375 -1.75 -0.609375q-0.796875 -0.25 -1.609375 -0.25q-1.03125 0 -1.734375 0.484375q-0.6875 0.484375 -1.03125 1.46875q-0.328125 0.96875 -0.328125 2.4375q0 1.453125 0.359375 2.40625q0.375 0.953125 1.0625 1.421875q0.6875 0.453125 1.671875 0.453125q1.234375 0 2.203125 -0.328125q0.96875 -0.34375 1.875 -0.9375l0 3.390625q-0.90625 0.578125 -1.90625 0.828125q-1.0 0.265625 -2.515625 0.265625zm13.760498 -15.125q2.9375 0 4.5 1.28125q1.5625 1.265625 1.5625 3.875l0 9.703125l-2.78125 0l-0.765625 -1.984375l-0.109375 0q-0.625 0.78125 -1.28125 1.28125q-0.640625 0.5 -1.484375 0.734375q-0.84375 0.234375 -2.0625 0.234375q-1.28125 0 -2.3125 -0.5q-1.015625 -0.5 -1.609375 -1.515625q-0.578125 -1.03125 -0.578125 -2.59375q0 -2.328125 1.625 -3.421875q1.625 -1.109375 4.875 -1.21875l2.53125 -0.078125l0 -0.640625q0 -1.140625 -0.609375 -1.671875q-0.59375 -0.546875 -1.65625 -0.546875q-1.046875 0 -2.0625 0.3125q-1.015625 0.296875 -2.03125 0.75l-1.328125 -2.6875q1.171875 -0.609375 2.609375 -0.953125q1.4375 -0.359375 2.96875 -0.359375zm2.109375 8.109375l-1.53125 0.0625q-1.9375 0.046875 -2.6875 0.6875q-0.734375 0.640625 -0.734375 1.671875q0 0.921875 0.53125 1.3125q0.53125 0.375 1.390625 0.375q1.28125 0 2.15625 -0.75q0.875 -0.765625 0.875 -2.15625l0 -1.203125zm18.18805 2.421875q0 1.484375 -0.703125 2.515625q-0.6875 1.015625 -2.0625 1.546875q-1.375 0.53125 -3.4375 0.53125q-1.53125 0 -2.625 -0.203125q-1.078125 -0.1875 -2.1875 -0.65625l0 -3.28125q1.1875 0.546875 2.546875 0.890625q1.359375 0.34375 2.390625 0.34375q1.15625 0 1.65625 -0.34375q0.515625 -0.34375 0.515625 -0.90625q0 -0.375 -0.203125 -0.65625q-0.203125 -0.296875 -0.875 -0.671875q-0.65625 -0.375 -2.078125 -0.96875q-1.375 -0.578125 -2.25 -1.15625q-0.875 -0.59375 -1.296875 -1.390625q-0.421875 -0.796875 -0.421875 -2.03125q0 -2.015625 1.5625 -3.03125q1.578125 -1.03125 4.203125 -1.03125q1.359375 0 2.578125 0.28125q1.234375 0.265625 2.53125 0.859375l-1.1875 2.859375q-1.078125 -0.46875 -2.046875 -0.765625q-0.953125 -0.296875 -1.9375 -0.296875q-0.875 0 -1.328125 0.234375q-0.4375 0.234375 -0.4375 0.71875q0 0.34375 0.21875 0.625q0.234375 0.265625 0.890625 0.609375q0.671875 0.328125 1.9375 0.84375q1.234375 0.515625 2.140625 1.078125q0.921875 0.546875 1.40625 1.359375q0.5 0.8125 0.5 2.09375zm9.2421875 1.421875q0.65625 0 1.265625 -0.125q0.625 -0.140625 1.234375 -0.328125l0 2.953125q-0.640625 0.28125 -1.59375 0.46875q-0.9375 0.203125 -2.046875 0.203125q-1.3125 0 -2.34375 -0.421875q-1.03125 -0.4375 -1.625 -1.484375q-0.59375 -1.046875 -0.59375 -2.921875l0 -7.015625l-1.90625 0l0 -1.671875l2.1875 -1.34375l1.15625 -3.0625l2.53125 0l0 3.09375l4.078125 0l0 2.984375l-4.078125 0l0 7.015625q0 0.84375 0.46875 1.25q0.484375 0.40625 1.265625 0.40625zm18.6156 -8.296875l3.96875 -7.84375l4.34375 0l-6.3125 11.640625l0 7.40625l-4.015625 0l0 -7.28125l-6.3125 -11.765625l4.375 0l3.953125 7.84375zm22.36261 11.203125l-1.375 -4.53125l-6.9375 0l-1.390625 4.53125l-4.34375 0l6.71875 -19.125l4.9375 0l6.75 19.125l-4.359375 0zm-2.34375 -7.921875l-1.375 -4.421875q-0.125 -0.4375 -0.34375 -1.140625q-0.21875 -0.703125 -0.4375 -1.421875q-0.203125 -0.71875 -0.34375 -1.25q-0.125 0.53125 -0.359375 1.328125q-0.21875 0.78125 -0.4375 1.484375q-0.203125 0.703125 -0.296875 1.0l-1.359375 4.421875l4.953125 0zm17.152039 7.921875l-4.578125 -14.9375l-0.125 0q0.03125 0.53125 0.09375 1.609375q0.0625 1.078125 0.109375 2.296875q0.046875 1.203125 0.046875 2.171875l0 8.859375l-3.609375 0l0 -19.046875l5.5 0l4.5 14.5625l0.078125 0l4.78125 -14.5625l5.5 0l0 19.046875l-3.765625 0l0 -9.015625q0 -0.890625 0.03125 -2.0625q0.03125 -1.171875 0.078125 -2.234375q0.0625 -1.0625 0.09375 -1.59375l-0.125 0l-4.90625 14.90625l-3.703125 0zm17.085632 0l0 -19.046875l4.046875 0l0 15.71875l7.71875 0l0 3.328125l-11.765625 0z" fill-rule="nonzero"/><path fill="#000000" d="m476.95508 663.8362q-1.15625 0 -2.046875 0.453125q-0.890625 0.4375 -1.5 1.296875q-0.609375 0.84375 -0.921875 2.046875q-0.3125 1.1875 -0.3125 2.6875q0 2.015625 0.5 3.453125q0.5 1.421875 1.546875 2.171875q1.0625 0.75 2.734375 0.75q1.15625 0 2.3125 -0.265625q1.171875 -0.265625 2.546875 -0.75l0 3.390625q-1.265625 0.515625 -2.5 0.75q-1.21875 0.234375 -2.734375 0.234375q-2.953125 0 -4.84375 -1.21875q-1.890625 -1.21875 -2.8125 -3.40625q-0.90625 -2.203125 -0.90625 -5.140625q0 -2.15625 0.578125 -3.953125q0.59375 -1.796875 1.71875 -3.109375q1.140625 -1.3125 2.8125 -2.03125q1.671875 -0.71875 3.828125 -0.71875q1.421875 0 2.84375 0.359375q1.421875 0.359375 2.734375 0.984375l-1.3125 3.28125q-1.0625 -0.515625 -2.140625 -0.890625q-1.078125 -0.375 -2.125 -0.375zm21.823639 8.640625q0 1.828125 -0.484375 3.234375q-0.484375 1.40625 -1.421875 2.375q-0.9375 0.96875 -2.25 1.46875q-1.296875 0.5 -2.9375 0.5q-1.53125 0 -2.828125 -0.5q-1.28125 -0.5 -2.21875 -1.46875q-0.9375 -0.96875 -1.453125 -2.375q-0.515625 -1.40625 -0.515625 -3.234375q0 -2.421875 0.859375 -4.09375q0.859375 -1.6875 2.4375 -2.546875q1.59375 -0.875 3.796875 -0.875q2.046875 0 3.625 0.875q1.578125 0.859375 2.484375 2.546875q0.90625 1.671875 0.90625 4.09375zm-10.0625 0q0 1.4375 0.3125 2.421875q0.3125 0.96875 0.96875 1.46875q0.671875 0.484375 1.734375 0.484375q1.0625 0 1.71875 -0.484375q0.65625 -0.5 0.953125 -1.46875q0.3125 -0.984375 0.3125 -2.421875q0 -1.4375 -0.3125 -2.390625q-0.296875 -0.96875 -0.96875 -1.4375q-0.65625 -0.484375 -1.71875 -0.484375q-1.578125 0 -2.296875 1.078125q-0.703125 1.078125 -0.703125 3.234375zm21.623016 -7.515625q2.328125 0 3.75 1.265625q1.421875 1.265625 1.421875 4.0625l0 9.5l-3.984375 0l0 -8.5q0 -1.5625 -0.5625 -2.359375q-0.5625 -0.796875 -1.78125 -0.796875q-1.8125 0 -2.484375 1.234375q-0.65625 1.234375 -0.65625 3.578125l0 6.84375l-3.984375 0l0 -14.5625l3.046875 0l0.53125 1.859375l0.21875 0q0.46875 -0.75 1.15625 -1.21875q0.703125 -0.46875 1.546875 -0.6875q0.859375 -0.21875 1.78125 -0.21875zm17.295105 3.25l-3.4375 0l0 11.578125l-3.96875 0l0 -11.578125l-2.1875 0l0 -1.921875l2.1875 -1.0625l0 -1.0625q0 -1.859375 0.625 -2.890625q0.640625 -1.046875 1.796875 -1.46875q1.15625 -0.421875 2.71875 -0.421875q1.171875 0 2.109375 0.1875q0.953125 0.1875 1.5625 0.421875l-1.015625 2.921875q-0.46875 -0.140625 -1.0 -0.25q-0.53125 -0.125 -1.21875 -0.125q-0.828125 0 -1.21875 0.5q-0.390625 0.5 -0.390625 1.28125l0 0.90625l3.4375 0l0 2.984375zm6.265625 -2.984375l0 14.5625l-3.984375 0l0 -14.5625l3.984375 0zm-1.984375 -5.703125q0.890625 0 1.515625 0.421875q0.640625 0.40625 0.640625 1.515625q0 1.109375 -0.640625 1.53125q-0.625 0.421875 -1.515625 0.421875q-0.90625 0 -1.53125 -0.421875q-0.625 -0.421875 -0.625 -1.53125q0 -1.109375 0.625 -1.515625q0.625 -0.421875 1.53125 -0.421875zm10.391602 26.671875q-3.046875 0 -4.65625 -1.0625q-1.609375 -1.0625 -1.609375 -2.96875q0 -1.3125 0.8125 -2.203125q0.828125 -0.890625 2.421875 -1.265625q-0.609375 -0.265625 -1.078125 -0.859375q-0.453125 -0.59375 -0.453125 -1.25q0 -0.828125 0.484375 -1.375q0.484375 -0.5625 1.390625 -1.09375q-1.140625 -0.5 -1.8125 -1.59375q-0.671875 -1.09375 -0.671875 -2.578125q0 -1.59375 0.6875 -2.703125q0.703125 -1.109375 2.03125 -1.6875q1.34375 -0.59375 3.265625 -0.59375q0.390625 0 0.921875 0.046875q0.546875 0.046875 0.984375 0.125q0.453125 0.0625 0.609375 0.09375l5.078125 0l0 2.015625l-2.28125 0.59375q0.3125 0.484375 0.46875 1.03125q0.15625 0.546875 0.15625 1.15625q0 2.34375 -1.640625 3.65625q-1.625 1.296875 -4.53125 1.296875q-0.6875 -0.03125 -1.296875 -0.09375q-0.296875 0.234375 -0.453125 0.5q-0.15625 0.25 -0.15625 0.53125q0 0.296875 0.234375 0.484375q0.25 0.1875 0.734375 0.28125q0.484375 0.09375 1.21875 0.09375l2.46875 0q2.40625 0 3.65625 1.03125q1.265625 1.03125 1.265625 3.03125q0 2.546875 -2.140625 3.953125q-2.125 1.40625 -6.109375 1.40625zm0.171875 -2.59375q1.421875 0 2.4375 -0.265625q1.015625 -0.265625 1.5625 -0.75q0.546875 -0.484375 0.546875 -1.171875q0 -0.546875 -0.3125 -0.875q-0.3125 -0.3125 -0.96875 -0.4375q-0.640625 -0.125 -1.640625 -0.125l-2.0625 0q-0.71875 0 -1.3125 0.234375q-0.578125 0.234375 -0.921875 0.65625q-0.328125 0.421875 -0.328125 0.984375q0 0.8125 0.78125 1.28125q0.796875 0.46875 2.21875 0.46875zm0.640625 -11.046875q1.109375 0 1.625 -0.6875q0.53125 -0.6875 0.53125 -1.875q0 -1.3125 -0.546875 -1.96875q-0.53125 -0.65625 -1.609375 -0.65625q-1.09375 0 -1.640625 0.65625q-0.546875 0.65625 -0.546875 1.96875q0 1.1875 0.53125 1.875q0.546875 0.6875 1.65625 0.6875z" fill-rule="nonzero"/><path fill="#56b4e9" d="m678.9136 793.49426c0 -5.9386597 4.814209 -10.752869 10.752869 -10.752869l260.951 0c2.8518066 0 5.586853 1.1329346 7.6033936 3.149475c2.0165405 2.0165405 3.149475 4.751587 3.149475 7.6033936l0 107.53369c0 5.9385986 -4.814209 10.752808 -10.752869 10.752808l-260.951 0c-5.9386597 0 -10.752869 -4.814209 -10.752869 -10.752808z" fill-rule="evenodd"/><path stroke="#4093c3" stroke-width="4.0" stroke-linejoin="round" stroke-linecap="butt" d="m678.9136 793.49426c0 -5.9386597 4.814209 -10.752869 10.752869 -10.752869l260.951 0c2.8518066 0 5.586853 1.1329346 7.6033936 3.149475c2.0165405 2.0165405 3.149475 4.751587 3.149475 7.6033936l0 107.53369c0 5.9385986 -4.814209 10.752808 -10.752869 10.752808l-260.951 0c-5.9386597 0 -10.752869 -4.814209 -10.752869 -10.752808z" fill-rule="evenodd"/><path fill="#000000" d="m772.1538 837.8201l0 12.328125q0 1.96875 -0.875 3.546875q-0.859375 1.578125 -2.609375 2.515625q-1.75 0.921875 -4.40625 0.921875q-3.78125 0 -5.765625 -1.921875q-1.96875 -1.9375 -1.96875 -5.109375l0 -12.28125l4.03125 0l0 11.65625q0 2.359375 0.953125 3.3125q0.96875 0.953125 2.859375 0.953125q1.328125 0 2.15625 -0.453125q0.828125 -0.453125 1.21875 -1.40625q0.390625 -0.953125 0.390625 -2.421875l0 -11.640625l4.015625 0zm14.503906 14.71875q0 1.484375 -0.703125 2.515625q-0.6875 1.015625 -2.0625 1.546875q-1.375 0.53125 -3.4375 0.53125q-1.53125 0 -2.625 -0.203125q-1.078125 -0.1875 -2.1875 -0.65625l0 -3.28125q1.1875 0.546875 2.546875 0.890625q1.359375 0.34375 2.390625 0.34375q1.15625 0 1.65625 -0.34375q0.515625 -0.34375 0.515625 -0.90625q0 -0.375 -0.203125 -0.65625q-0.203125 -0.296875 -0.875 -0.671875q-0.65625 -0.375 -2.078125 -0.96875q-1.375 -0.578125 -2.25 -1.15625q-0.875 -0.59375 -1.296875 -1.390625q-0.421875 -0.796875 -0.421875 -2.03125q0 -2.015625 1.5625 -3.03125q1.578125 -1.03125 4.203125 -1.03125q1.359375 0 2.578125 0.28125q1.234375 0.265625 2.53125 0.859375l-1.1875 2.859375q-1.078125 -0.46875 -2.046875 -0.765625q-0.953125 -0.296875 -1.9375 -0.296875q-0.875 0 -1.328125 0.234375q-0.4375 0.234375 -0.4375 0.71875q0 0.34375 0.21875 0.625q0.234375 0.265625 0.890625 0.609375q0.671875 0.328125 1.9375 0.84375q1.234375 0.515625 2.140625 1.078125q0.921875 0.546875 1.40625 1.359375q0.5 0.8125 0.5 2.09375zm9.1171875 -10.5q2.015625 0 3.46875 0.78125q1.453125 0.765625 2.25 2.234375q0.796875 1.46875 0.796875 3.59375l0 1.921875l-9.390625 0q0.0625 1.6875 1.0 2.640625q0.953125 0.953125 2.640625 0.953125q1.390625 0 2.546875 -0.28125q1.15625 -0.28125 2.390625 -0.859375l0 3.078125q-1.09375 0.53125 -2.265625 0.78125q-1.171875 0.25 -2.859375 0.25q-2.1875 0 -3.875 -0.8125q-1.6875 -0.8125 -2.640625 -2.453125q-0.953125 -1.65625 -0.953125 -4.171875q0 -2.5625 0.859375 -4.25q0.875 -1.703125 2.421875 -2.546875q1.546875 -0.859375 3.609375 -0.859375zm0.015625 2.828125q-1.15625 0 -1.921875 0.75q-0.75 0.734375 -0.875 2.3125l5.578125 0q-0.015625 -0.875 -0.328125 -1.5625q-0.296875 -0.703125 -0.90625 -1.09375q-0.609375 -0.40625 -1.546875 -0.40625zm17.85205 -2.828125q0.3125 0 0.703125 0.03125q0.390625 0.03125 0.640625 0.078125l-0.296875 3.734375q-0.1875 -0.078125 -0.546875 -0.109375q-0.359375 -0.03125 -0.625 -0.03125q-0.765625 0 -1.5 0.203125q-0.71875 0.1875 -1.296875 0.625q-0.5625 0.4375 -0.890625 1.15625q-0.328125 0.703125 -0.328125 1.734375l0 7.40625l-3.984375 0l0 -14.5625l3.015625 0l0.578125 2.453125l0.203125 0q0.421875 -0.75 1.0625 -1.359375q0.65625 -0.625 1.484375 -0.984375q0.828125 -0.375 1.78125 -0.375zm27.024536 5.125q0 3.21875 -1.234375 5.375q-1.21875 2.15625 -3.5625 3.25q-2.328125 1.078125 -5.609375 1.078125l-5.390625 0l0 -19.046875l5.984375 0q3.0 0 5.1875 1.0625q2.203125 1.0625 3.40625 3.140625q1.21875 2.078125 1.21875 5.140625zm-4.1875 0.109375q0 -2.109375 -0.625 -3.46875q-0.609375 -1.375 -1.8125 -2.015625q-1.203125 -0.65625 -2.984375 -0.65625l-2.140625 0l0 12.40625l1.734375 0q2.953125 0 4.390625 -1.578125q1.4375 -1.578125 1.4375 -4.6875zm13.790344 -5.265625q2.9375 0 4.5 1.28125q1.5625 1.265625 1.5625 3.875l0 9.703125l-2.78125 0l-0.765625 -1.984375l-0.109375 0q-0.625 0.78125 -1.28125 1.28125q-0.640625 0.5 -1.484375 0.734375q-0.84375 0.234375 -2.0625 0.234375q-1.28125 0 -2.3125 -0.5q-1.015625 -0.5 -1.609375 -1.515625q-0.578125 -1.03125 -0.578125 -2.59375q0 -2.328125 1.625 -3.421875q1.625 -1.109375 4.875 -1.21875l2.53125 -0.078125l0 -0.640625q0 -1.140625 -0.609375 -1.671875q-0.59375 -0.546875 -1.65625 -0.546875q-1.046875 0 -2.0625 0.3125q-1.015625 0.296875 -2.03125 0.75l-1.328125 -2.6875q1.171875 -0.609375 2.609375 -0.953125q1.4375 -0.359375 2.96875 -0.359375zm2.109375 8.109375l-1.53125 0.0625q-1.9375 0.046875 -2.6875 0.6875q-0.734375 0.640625 -0.734375 1.671875q0 0.921875 0.53125 1.3125q0.53125 0.375 1.390625 0.375q1.28125 0 2.15625 -0.75q0.875 -0.765625 0.875 -2.15625l0 -1.203125zm14.172424 3.84375q0.65625 0 1.265625 -0.125q0.625 -0.140625 1.234375 -0.328125l0 2.953125q-0.640625 0.28125 -1.59375 0.46875q-0.9375 0.203125 -2.046875 0.203125q-1.3125 0 -2.34375 -0.421875q-1.03125 -0.4375 -1.625 -1.484375q-0.59375 -1.046875 -0.59375 -2.921875l0 -7.015625l-1.90625 0l0 -1.671875l2.1875 -1.34375l1.15625 -3.0625l2.53125 0l0 3.09375l4.078125 0l0 2.984375l-4.078125 0l0 7.015625q0 0.84375 0.46875 1.25q0.484375 0.40625 1.265625 0.40625zm11.405884 -11.953125q2.9375 0 4.5 1.28125q1.5625 1.265625 1.5625 3.875l0 9.703125l-2.78125 0l-0.765625 -1.984375l-0.109375 0q-0.625 0.78125 -1.28125 1.28125q-0.640625 0.5 -1.484375 0.734375q-0.84375 0.234375 -2.0625 0.234375q-1.28125 0 -2.3125 -0.5q-1.015625 -0.5 -1.609375 -1.515625q-0.578125 -1.03125 -0.578125 -2.59375q0 -2.328125 1.625 -3.421875q1.625 -1.109375 4.875 -1.21875l2.53125 -0.078125l0 -0.640625q0 -1.140625 -0.609375 -1.671875q-0.59375 -0.546875 -1.65625 -0.546875q-1.046875 0 -2.0625 0.3125q-1.015625 0.296875 -2.03125 0.75l-1.328125 -2.6875q1.171875 -0.609375 2.609375 -0.953125q1.4375 -0.359375 2.96875 -0.359375zm2.109375 8.109375l-1.53125 0.0625q-1.9375 0.046875 -2.6875 0.6875q-0.734375 0.640625 -0.734375 1.671875q0 0.921875 0.53125 1.3125q0.53125 0.375 1.390625 0.375q1.28125 0 2.15625 -0.75q0.875 -0.765625 0.875 -2.15625l0 -1.203125z" fill-rule="nonzero"/><path fill="#56b4e9" d="m735.42505 934.2001c0 -1.7683716 1.4335938 -3.2019653 3.2019653 -3.2019653l219.51733 0c0.8491821 0 1.6636353 0.3373413 2.2640991 0.9378662c0.6005249 0.60046387 0.9378662 1.414917 0.9378662 2.2640991l0 32.0213c0 1.7683716 -1.4335938 3.2019653 -3.2019653 3.2019653l-219.51733 0c-1.7683716 0 -3.2019653 -1.4335938 -3.2019653 -3.2019653z" fill-rule="evenodd"/><path fill="#000000" d="m765.3785 954.8655q0 1.328125 -0.625 2.25q-0.625 0.921875 -1.875 1.40625q-1.234375 0.46875 -3.09375 0.46875q-1.359375 0 -2.34375 -0.1875q-0.984375 -0.171875 -1.96875 -0.578125l0 -2.953125q1.0625 0.484375 2.28125 0.796875q1.234375 0.3125 2.15625 0.3125q1.046875 0 1.484375 -0.3125q0.453125 -0.3125 0.453125 -0.8125q0 -0.328125 -0.1875 -0.59375q-0.171875 -0.265625 -0.765625 -0.59375q-0.59375 -0.34375 -1.875 -0.875q-1.234375 -0.515625 -2.03125 -1.046875q-0.78125 -0.53125 -1.171875 -1.25q-0.375 -0.71875 -0.375 -1.828125q0 -1.828125 1.40625 -2.734375q1.421875 -0.921875 3.78125 -0.921875q1.21875 0 2.328125 0.25q1.109375 0.234375 2.28125 0.78125l-1.078125 2.578125q-0.96875 -0.421875 -1.828125 -0.6875q-0.859375 -0.28125 -1.75 -0.28125q-0.796875 0 -1.203125 0.21875q-0.390625 0.203125 -0.390625 0.640625q0 0.3125 0.203125 0.5625q0.21875 0.25 0.796875 0.546875q0.59375 0.296875 1.75 0.765625q1.109375 0.453125 1.921875 0.953125q0.828125 0.5 1.265625 1.234375q0.453125 0.734375 0.453125 1.890625zm8.1171875 4.125q-1.953125 0 -3.328125 -0.703125q-1.359375 -0.71875 -2.078125 -2.203125q-0.71875 -1.484375 -0.71875 -3.8125q0 -2.40625 0.8125 -3.921875q0.8125 -1.515625 2.265625 -2.21875q1.453125 -0.71875 3.359375 -0.71875q1.359375 0 2.34375 0.265625q1.0 0.25 1.734375 0.625l-1.0625 2.765625q-0.84375 -0.34375 -1.578125 -0.5625q-0.71875 -0.21875 -1.4375 -0.21875q-0.9375 0 -1.5625 0.4375q-0.625 0.4375 -0.9375 1.328125q-0.296875 0.875 -0.296875 2.203125q0 1.296875 0.328125 2.15625q0.328125 0.84375 0.953125 1.265625q0.625 0.421875 1.515625 0.421875q1.109375 0 1.96875 -0.296875q0.875 -0.3125 1.703125 -0.84375l0 3.0625q-0.828125 0.515625 -1.734375 0.734375q-0.890625 0.234375 -2.25 0.234375zm12.417969 -13.578125q1.8125 0 3.125 0.703125q1.3125 0.6875 2.03125 2.015625q0.71875 1.3125 0.71875 3.234375l0 1.734375l-8.453125 0q0.0625 1.5 0.90625 2.375q0.84375 0.859375 2.359375 0.859375q1.25 0 2.296875 -0.25q1.046875 -0.265625 2.140625 -0.78125l0 2.765625q-0.96875 0.46875 -2.03125 0.6875q-1.0625 0.234375 -2.5625 0.234375q-1.96875 0 -3.5 -0.71875q-1.515625 -0.734375 -2.375 -2.21875q-0.859375 -1.5 -0.859375 -3.75q0 -2.296875 0.78125 -3.828125q0.78125 -1.53125 2.171875 -2.296875q1.390625 -0.765625 3.25 -0.765625zm0.015625 2.53125q-1.03125 0 -1.71875 0.671875q-0.6875 0.671875 -0.796875 2.09375l5.015625 0q-0.015625 -0.796875 -0.296875 -1.40625q-0.265625 -0.625 -0.8125 -0.984375q-0.546875 -0.375 -1.390625 -0.375zm16.195312 -2.53125q2.109375 0 3.375 1.140625q1.28125 1.140625 1.28125 3.65625l0 8.546875l-3.578125 0l0 -7.65625q0 -1.40625 -0.515625 -2.109375q-0.5 -0.71875 -1.59375 -0.71875q-1.640625 0 -2.234375 1.109375q-0.59375 1.109375 -0.59375 3.203125l0 6.171875l-3.578125 0l0 -13.109375l2.734375 0l0.484375 1.6875l0.1875 0q0.421875 -0.6875 1.046875 -1.109375q0.640625 -0.421875 1.40625 -0.609375q0.765625 -0.203125 1.578125 -0.203125zm13.7109375 -0.03125q2.625 0 4.03125 1.15625q1.40625 1.140625 1.40625 3.484375l0 8.734375l-2.484375 0l-0.703125 -1.78125l-0.09375 0q-0.5625 0.703125 -1.15625 1.15625q-0.578125 0.4375 -1.34375 0.640625q-0.75 0.21875 -1.84375 0.21875q-1.15625 0 -2.078125 -0.4375q-0.921875 -0.453125 -1.453125 -1.375q-0.515625 -0.921875 -0.515625 -2.34375q0 -2.078125 1.453125 -3.0625q1.46875 -1.0 4.40625 -1.109375l2.265625 -0.0625l0 -0.578125q0 -1.03125 -0.546875 -1.5q-0.53125 -0.484375 -1.484375 -0.484375q-0.953125 0 -1.875 0.265625q-0.90625 0.265625 -1.828125 0.671875l-1.171875 -2.40625q1.03125 -0.546875 2.328125 -0.859375q1.296875 -0.328125 2.6875 -0.328125zm1.890625 7.296875l-1.375 0.046875q-1.734375 0.046875 -2.421875 0.625q-0.671875 0.578125 -0.671875 1.515625q0 0.8125 0.484375 1.171875q0.484375 0.34375 1.25 0.34375q1.15625 0 1.9375 -0.671875q0.796875 -0.6875 0.796875 -1.953125l0 -1.078125zm14.542969 -7.265625q0.265625 0 0.625 0.03125q0.359375 0.015625 0.578125 0.0625l-0.265625 3.359375q-0.171875 -0.0625 -0.5 -0.09375q-0.3125 -0.03125 -0.546875 -0.03125q-0.703125 0 -1.359375 0.1875q-0.640625 0.171875 -1.15625 0.5625q-0.515625 0.390625 -0.8125 1.03125q-0.296875 0.640625 -0.296875 1.5625l0 6.671875l-3.578125 0l0 -13.109375l2.703125 0l0.53125 2.203125l0.171875 0q0.390625 -0.65625 0.96875 -1.21875q0.578125 -0.5625 1.328125 -0.890625q0.75 -0.328125 1.609375 -0.328125zm7.1640625 0.234375l0 13.109375l-3.578125 0l0 -13.109375l3.578125 0zm-1.78125 -5.125q0.796875 0 1.359375 0.375q0.578125 0.359375 0.578125 1.375q0 0.984375 -0.578125 1.375q-0.5625 0.375 -1.359375 0.375q-0.8125 0 -1.390625 -0.375q-0.5625 -0.390625 -0.5625 -1.375q0 -1.015625 0.5625 -1.375q0.578125 -0.375 1.390625 -0.375zm17.433594 11.65625q0 1.640625 -0.4375 2.90625q-0.4375 1.265625 -1.28125 2.140625q-0.828125 0.875 -2.015625 1.328125q-1.171875 0.4375 -2.65625 0.4375q-1.375 0 -2.53125 -0.4375q-1.15625 -0.453125 -2.015625 -1.328125q-0.84375 -0.875 -1.3125 -2.140625q-0.453125 -1.265625 -0.453125 -2.90625q0 -2.171875 0.765625 -3.6875q0.78125 -1.515625 2.203125 -2.296875q1.4375 -0.78125 3.421875 -0.78125q1.84375 0 3.265625 0.78125q1.421875 0.78125 2.234375 2.296875q0.8125 1.515625 0.8125 3.6875zm-9.0625 0q0 1.296875 0.28125 2.171875q0.28125 0.875 0.875 1.328125q0.609375 0.4375 1.5625 0.4375q0.953125 0 1.546875 -0.4375q0.59375 -0.453125 0.859375 -1.328125q0.28125 -0.875 0.28125 -2.171875q0 -1.296875 -0.28125 -2.15625q-0.265625 -0.859375 -0.875 -1.296875q-0.59375 -0.4375 -1.546875 -0.4375q-1.421875 0 -2.0625 0.984375q-0.640625 0.96875 -0.640625 2.90625zm21.15625 2.6875q0 1.328125 -0.625 2.25q-0.625 0.921875 -1.875 1.40625q-1.234375 0.46875 -3.09375 0.46875q-1.359375 0 -2.34375 -0.1875q-0.984375 -0.171875 -1.96875 -0.578125l0 -2.953125q1.0625 0.484375 2.28125 0.796875q1.234375 0.3125 2.15625 0.3125q1.046875 0 1.484375 -0.3125q0.453125 -0.3125 0.453125 -0.8125q0 -0.328125 -0.1875 -0.59375q-0.171875 -0.265625 -0.765625 -0.59375q-0.59375 -0.34375 -1.875 -0.875q-1.234375 -0.515625 -2.03125 -1.046875q-0.78125 -0.53125 -1.171875 -1.25q-0.375 -0.71875 -0.375 -1.828125q0 -1.828125 1.40625 -2.734375q1.421875 -0.921875 3.78125 -0.921875q1.21875 0 2.328125 0.25q1.109375 0.234375 2.28125 0.78125l-1.078125 2.578125q-0.96875 -0.421875 -1.828125 -0.6875q-0.859375 -0.28125 -1.75 -0.28125q-0.796875 0 -1.203125 0.21875q-0.390625 0.203125 -0.390625 0.640625q0 0.3125 0.203125 0.5625q0.21875 0.25 0.796875 0.546875q0.59375 0.296875 1.75 0.765625q1.109375 0.453125 1.921875 0.953125q0.828125 0.5 1.265625 1.234375q0.453125 0.734375 0.453125 1.890625zm2.2890625 2.21875q0 -1.109375 0.59375 -1.546875q0.609375 -0.453125 1.46875 -0.453125q0.828125 0 1.421875 0.453125q0.609375 0.4375 0.609375 1.546875q0 1.046875 -0.609375 1.515625q-0.59375 0.46875 -1.421875 0.46875q-0.859375 0 -1.46875 -0.46875q-0.59375 -0.46875 -0.59375 -1.515625zm12.671875 1.90625q-1.953125 0 -3.328125 -0.703125q-1.359375 -0.71875 -2.078125 -2.203125q-0.71875 -1.484375 -0.71875 -3.8125q0 -2.40625 0.8125 -3.921875q0.8125 -1.515625 2.265625 -2.21875q1.453125 -0.71875 3.359375 -0.71875q1.359375 0 2.34375 0.265625q1.0 0.25 1.734375 0.625l-1.0625 2.765625q-0.84375 -0.34375 -1.578125 -0.5625q-0.71875 -0.21875 -1.4375 -0.21875q-0.9375 0 -1.5625 0.4375q-0.625 0.4375 -0.9375 1.328125q-0.296875 0.875 -0.296875 2.203125q0 1.296875 0.328125 2.15625q0.328125 0.84375 0.953125 1.265625q0.625 0.421875 1.515625 0.421875q1.109375 0 1.96875 -0.296875q0.875 -0.3125 1.703125 -0.84375l0 3.0625q-0.828125 0.515625 -1.734375 0.734375q-0.890625 0.234375 -2.25 0.234375zm16.152344 -4.125q0 1.328125 -0.625 2.25q-0.625 0.921875 -1.875 1.40625q-1.234375 0.46875 -3.09375 0.46875q-1.359375 0 -2.34375 -0.1875q-0.984375 -0.171875 -1.96875 -0.578125l0 -2.953125q1.0625 0.484375 2.28125 0.796875q1.234375 0.3125 2.15625 0.3125q1.046875 0 1.484375 -0.3125q0.453125 -0.3125 0.453125 -0.8125q0 -0.328125 -0.1875 -0.59375q-0.171875 -0.265625 -0.765625 -0.59375q-0.59375 -0.34375 -1.875 -0.875q-1.234375 -0.515625 -2.03125 -1.046875q-0.78125 -0.53125 -1.171875 -1.25q-0.375 -0.71875 -0.375 -1.828125q0 -1.828125 1.40625 -2.734375q1.421875 -0.921875 3.78125 -0.921875q1.21875 0 2.328125 0.25q1.109375 0.234375 2.28125 0.78125l-1.078125 2.578125q-0.96875 -0.421875 -1.828125 -0.6875q-0.859375 -0.28125 -1.75 -0.28125q-0.796875 0 -1.203125 0.21875q-0.390625 0.203125 -0.390625 0.640625q0 0.3125 0.203125 0.5625q0.21875 0.25 0.796875 0.546875q0.59375 0.296875 1.75 0.765625q1.109375 0.453125 1.921875 0.953125q0.828125 0.5 1.265625 1.234375q0.453125 0.734375 0.453125 1.890625zm5.9140625 3.890625l-5.0 -13.109375l3.734375 0l2.53125 7.46875q0.21875 0.65625 0.34375 1.390625q0.125 0.71875 0.171875 1.296875l0.09375 0q0.03125 -0.625 0.15625 -1.328125q0.140625 -0.703125 0.359375 -1.359375l2.53125 -7.46875l3.734375 0l-5.0 13.109375l-3.65625 0z" fill-rule="nonzero"/><path fill="#000000" fill-opacity="0.0" d="m704.5589 914.1792l0 36.031494l30.86615 0" fill-rule="evenodd"/><path stroke="#595959" stroke-width="4.0" stroke-linejoin="round" stroke-linecap="butt" d="m704.5589 914.1792l0 36.031494l30.86615 0" fill-rule="evenodd"/><path fill="#000000" fill-opacity="0.0" d="m329.95367 40.58174l357.85828 0l0 87.27559l-357.85828 0z" fill-rule="evenodd"/><path fill="#000000" d="m450.625 90.0532q0 2.546875 -1.234375 4.421875q-1.234375 1.875 -3.59375 2.890625q-2.34375 1.015625 -5.703125 1.015625q-1.484375 0 -2.90625 -0.203125q-1.40625 -0.1875 -2.703125 -0.5625q-1.296875 -0.390625 -2.46875 -0.953125l0 -5.625q2.03125 0.890625 4.21875 1.625q2.1875 0.71875 4.328125 0.71875q1.484375 0 2.390625 -0.390625q0.90625 -0.390625 1.3125 -1.078125q0.421875 -0.6875 0.421875 -1.5625q0 -1.078125 -0.734375 -1.828125q-0.71875 -0.765625 -1.984375 -1.421875q-1.25 -0.671875 -2.828125 -1.4375q-1.0 -0.46875 -2.171875 -1.140625q-1.171875 -0.671875 -2.234375 -1.640625q-1.046875 -0.984375 -1.71875 -2.375q-0.671875 -1.40625 -0.671875 -3.359375q0 -2.5625 1.171875 -4.375q1.171875 -1.8125 3.34375 -2.78125q2.1875 -0.96875 5.15625 -0.96875q2.21875 0 4.234375 0.515625q2.03125 0.515625 4.234375 1.5l-1.953125 4.703125q-1.96875 -0.796875 -3.53125 -1.234375q-1.5625 -0.4375 -3.1875 -0.4375q-1.125 0 -1.9375 0.359375q-0.796875 0.359375 -1.203125 1.015625q-0.40625 0.65625 -0.40625 1.515625q0 1.015625 0.59375 1.703125q0.59375 0.6875 1.796875 1.34375q1.203125 0.640625 3.0 1.5q2.1875 1.03125 3.734375 2.15625q1.546875 1.125 2.390625 2.640625q0.84375 1.515625 0.84375 3.75zm16.1875 7.9375l-6.046875 0l0 -23.515625l-7.765625 0l0 -5.046875l21.5625 0l0 5.046875l-7.75 0l0 23.515625zm29.632812 0l-2.078125 -6.796875l-10.40625 0l-2.0625 6.796875l-6.53125 0l10.078125 -28.671875l7.40625 0l10.109375 28.671875l-6.515625 0zm-3.515625 -11.875l-2.078125 -6.640625q-0.1875 -0.671875 -0.515625 -1.703125q-0.3125 -1.046875 -0.640625 -2.125q-0.328125 -1.09375 -0.515625 -1.890625q-0.203125 0.796875 -0.546875 1.984375q-0.328125 1.171875 -0.640625 2.234375q-0.3125 1.046875 -0.453125 1.5l-2.046875 6.640625l7.4375 0zm24.472656 -4.15625l11.328125 0l0 14.796875q-2.25 0.75 -4.671875 1.1875q-2.421875 0.4375 -5.484375 0.4375q-4.265625 0 -7.234375 -1.671875q-2.96875 -1.6875 -4.515625 -4.96875q-1.53125 -3.28125 -1.53125 -8.0625q0 -4.5 1.71875 -7.78125q1.734375 -3.28125 5.0625 -5.078125q3.328125 -1.796875 8.140625 -1.796875q2.265625 0 4.46875 0.5q2.203125 0.484375 4.0 1.265625l-2.0 4.84375q-1.3125 -0.671875 -3.0 -1.109375q-1.671875 -0.453125 -3.515625 -0.453125q-2.625 0 -4.578125 1.21875q-1.9375 1.203125 -3.0 3.375q-1.0625 2.171875 -1.0625 5.125q0 2.796875 0.75 4.953125q0.765625 2.15625 2.40625 3.375q1.640625 1.21875 4.28125 1.21875q1.28125 0 2.171875 -0.125q0.890625 -0.125 1.671875 -0.265625l0 -5.953125l-5.40625 0l0 -5.03125zm34.57422 16.03125l-16.453125 0l0 -28.5625l16.453125 0l0 4.96875l-10.390625 0l0 6.265625l9.65625 0l0 4.96875l-9.65625 0l0 7.359375l10.390625 0l0 5.0zm29.277344 0l-6.046875 0l0 -16.53125q0 -0.671875 0.015625 -1.671875q0.03125 -1.015625 0.0625 -2.078125q0.046875 -1.0625 0.078125 -1.921875q-0.203125 0.25 -0.859375 0.875q-0.65625 0.609375 -1.21875 1.09375l-3.28125 2.640625l-2.921875 -3.640625l9.203125 -7.328125l4.96875 0l0 28.5625z" fill-rule="nonzero"/><path fill="#000000" fill-opacity="0.0" d="m429.67395 491.6448l158.14172 0l0 67.96854l-158.14172 0z" fill-rule="evenodd"/><path fill="#595959" d="m491.2103 515.2038l-4.84375 19.046875l-4.59375 0l-2.578125 -10.0q-0.078125 -0.28125 -0.21875 -0.859375q-0.125 -0.59375 -0.265625 -1.296875q-0.140625 -0.703125 -0.25 -1.3125q-0.109375 -0.625 -0.15625 -0.984375q-0.03125 0.359375 -0.140625 0.984375q-0.109375 0.609375 -0.25 1.296875q-0.140625 0.6875 -0.28125 1.296875q-0.125 0.59375 -0.203125 0.90625l-2.5625 9.96875l-4.578125 0l-4.859375 -19.046875l3.96875 0l2.4375 10.40625q0.109375 0.46875 0.234375 1.125q0.140625 0.640625 0.28125 1.359375q0.140625 0.703125 0.25 1.359375q0.109375 0.65625 0.15625 1.140625q0.0625 -0.5 0.171875 -1.15625q0.109375 -0.65625 0.234375 -1.34375q0.125 -0.6875 0.25 -1.265625q0.125 -0.59375 0.234375 -0.953125l2.765625 -10.671875l3.828125 0l2.765625 10.671875q0.09375 0.359375 0.21875 0.953125q0.125 0.578125 0.25 1.28125q0.140625 0.6875 0.25 1.34375q0.109375 0.65625 0.15625 1.140625q0.09375 -0.65625 0.25 -1.578125q0.171875 -0.9375 0.359375 -1.859375q0.1875 -0.921875 0.328125 -1.546875l2.421875 -10.40625l3.96875 0zm10.20816 4.21875q0.3125 0 0.703125 0.03125q0.390625 0.03125 0.640625 0.078125l-0.296875 3.734375q-0.1875 -0.078125 -0.546875 -0.109375q-0.359375 -0.03125 -0.625 -0.03125q-0.765625 0 -1.5 0.203125q-0.71875 0.1875 -1.296875 0.625q-0.5625 0.4375 -0.890625 1.15625q-0.328125 0.703125 -0.328125 1.734375l0 7.40625l-3.984375 0l0 -14.5625l3.015625 0l0.578125 2.453125l0.203125 0q0.421875 -0.75 1.0625 -1.359375q0.65625 -0.625 1.484375 -0.984375q0.828125 -0.375 1.78125 -0.375zm7.9711304 0.265625l0 14.5625l-3.984375 0l0 -14.5625l3.984375 0zm-1.984375 -5.703125q0.890625 0 1.515625 0.421875q0.640625 0.40625 0.640625 1.515625q0 1.109375 -0.640625 1.53125q-0.625 0.421875 -1.515625 0.421875q-0.90625 0 -1.53125 -0.421875q-0.625 -0.421875 -0.625 -1.53125q0 -1.109375 0.625 -1.515625q0.625 -0.421875 1.53125 -0.421875zm12.280212 17.359375q0.65625 0 1.265625 -0.125q0.625 -0.140625 1.234375 -0.328125l0 2.953125q-0.640625 0.28125 -1.59375 0.46875q-0.9375 0.203125 -2.046875 0.203125q-1.3125 0 -2.34375 -0.421875q-1.03125 -0.4375 -1.625 -1.484375q-0.59375 -1.046875 -0.59375 -2.921875l0 -7.015625l-1.90625 0l0 -1.671875l2.1875 -1.34375l1.15625 -3.0625l2.53125 0l0 3.09375l4.078125 0l0 2.984375l-4.078125 0l0 7.015625q0 0.84375 0.46875 1.25q0.484375 0.40625 1.265625 0.40625zm11.45282 -11.921875q2.015625 0 3.46875 0.78125q1.453125 0.765625 2.25 2.234375q0.796875 1.46875 0.796875 3.59375l0 1.921875l-9.390625 0q0.0625 1.6875 1.0 2.640625q0.953125 0.953125 2.640625 0.953125q1.390625 0 2.546875 -0.28125q1.15625 -0.28125 2.390625 -0.859375l0 3.078125q-1.09375 0.53125 -2.265625 0.78125q-1.171875 0.25 -2.859375 0.25q-2.1875 0 -3.875 -0.8125q-1.6875 -0.8125 -2.640625 -2.453125q-0.953125 -1.65625 -0.953125 -4.171875q0 -2.5625 0.859375 -4.25q0.875 -1.703125 2.421875 -2.546875q1.546875 -0.859375 3.609375 -0.859375zm0.015625 2.828125q-1.15625 0 -1.921875 0.75q-0.75 0.734375 -0.875 2.3125l5.578125 0q-0.015625 -0.875 -0.328125 -1.5625q-0.296875 -0.703125 -0.90625 -1.09375q-0.609375 -0.40625 -1.546875 -0.40625zm19.8833 7.671875q0 1.484375 -0.703125 2.515625q-0.6875 1.015625 -2.0625 1.546875q-1.375 0.53125 -3.4375 0.53125q-1.53125 0 -2.625 -0.203125q-1.078125 -0.1875 -2.1875 -0.65625l0 -3.28125q1.1875 0.546875 2.546875 0.890625q1.359375 0.34375 2.390625 0.34375q1.15625 0 1.65625 -0.34375q0.515625 -0.34375 0.515625 -0.90625q0 -0.375 -0.203125 -0.65625q-0.203125 -0.296875 -0.875 -0.671875q-0.65625 -0.375 -2.078125 -0.96875q-1.375 -0.578125 -2.25 -1.15625q-0.875 -0.59375 -1.296875 -1.390625q-0.421875 -0.796875 -0.421875 -2.03125q0 -2.015625 1.5625 -3.03125q1.578125 -1.03125 4.203125 -1.03125q1.359375 0 2.578125 0.28125q1.234375 0.265625 2.53125 0.859375l-1.1875 2.859375q-1.078125 -0.46875 -2.046875 -0.765625q-0.953125 -0.296875 -1.9375 -0.296875q-0.875 0 -1.328125 0.234375q-0.4375 0.234375 -0.4375 0.71875q0 0.34375 0.21875 0.625q0.234375 0.265625 0.890625 0.609375q0.671875 0.328125 1.9375 0.84375q1.234375 0.515625 2.140625 1.078125q0.921875 0.546875 1.40625 1.359375q0.5 0.8125 0.5 2.09375z" fill-rule="nonzero"/><path fill="#000000" fill-opacity="0.0" d="m508.7448 559.61334l0 15.025085l0.06298828 0l0 15.022156" fill-rule="evenodd"/><path stroke="#595959" stroke-width="4.0" stroke-linejoin="round" stroke-linecap="butt" d="m508.7448 559.61334l0 15.025085l0.06298828 0l0 15.022156" fill-rule="evenodd"/><path fill="#e69f00" d="m55.04037 793.49335c0 -5.9386597 4.8142166 -10.752869 10.75285 -10.752869l260.951 0c2.8518372 0 5.5868835 1.1328735 7.603424 3.149414c2.0165405 2.0166016 3.1494446 4.751587 3.1494446 7.6034546l0 107.53363c0 5.9386597 -4.814209 10.752869 -10.752869 10.752869l-260.951 0c-5.938633 0 -10.75285 -4.814209 -10.75285 -10.752869z" fill-rule="evenodd"/><path stroke="#c68902" stroke-width="4.0" stroke-linejoin="round" stroke-linecap="butt" d="m55.04037 793.49335c0 -5.9386597 4.8142166 -10.752869 10.75285 -10.752869l260.951 0c2.8518372 0 5.5868835 1.1328735 7.603424 3.149414c2.0165405 2.0166016 3.1494446 4.751587 3.1494446 7.6034546l0 107.53363c0 5.9386597 -4.814209 10.752869 -10.752869 10.752869l-260.951 0c-5.938633 0 -10.75285 -4.814209 -10.75285 -10.752869z" fill-rule="evenodd"/><path fill="#000000" d="m117.75079 845.0848l4.953125 -23.265625l5.15625 0l-0.40625 1.796875l-3.09375 0l-4.171875 19.671875l3.109375 0l-0.40625 1.796875l-5.140625 0zm9.134338 -4.21875l4.015625 -19.046875l9.65625 0l-0.390625 1.953125l-7.484375 0l-1.46875 7.015625l7.0 0l-0.421875 1.953125l-7.0 0l-1.71875 8.125l-2.1875 0zm12.374893 0l3.046875 -14.28125l1.765625 0l-0.34375 2.765625l0.140625 0q0.546875 -0.734375 1.171875 -1.4375q0.625 -0.703125 1.421875 -1.140625q0.796875 -0.4375 1.84375 -0.4375q0.390625 0 0.78125 0.046875q0.40625 0.046875 0.765625 0.140625l-0.46875 1.953125q-0.359375 -0.078125 -0.6875 -0.109375q-0.328125 -0.046875 -0.6875 -0.046875q-0.984375 0 -1.828125 0.515625q-0.84375 0.5 -1.515625 1.359375q-0.671875 0.859375 -1.140625 1.921875q-0.453125 1.046875 -0.6875 2.140625l-1.390625 6.609375l-2.1875 0zm16.364044 0.203125q-1.640625 0 -2.828125 -0.671875q-1.1875 -0.671875 -1.828125 -1.890625q-0.625 -1.234375 -0.625 -2.921875q0 -1.34375 0.296875 -2.65625q0.3125 -1.328125 0.890625 -2.5q0.59375 -1.1875 1.453125 -2.09375q0.875 -0.90625 2.0 -1.421875q1.140625 -0.515625 2.53125 -0.515625q1.65625 0 2.828125 0.671875q1.1875 0.671875 1.8125 1.90625q0.640625 1.234375 0.640625 2.9375q0 1.328125 -0.296875 2.640625q-0.28125 1.3125 -0.875 2.5q-0.578125 1.171875 -1.4375 2.078125q-0.859375 0.90625 -2.0 1.421875q-1.140625 0.515625 -2.5625 0.515625zm0.125 -1.796875q0.8125 0 1.53125 -0.328125q0.734375 -0.34375 1.328125 -0.984375q0.609375 -0.65625 1.046875 -1.578125q0.4375 -0.9375 0.671875 -2.109375q0.25 -1.1875 0.25 -2.609375q0 -0.84375 -0.3125 -1.640625q-0.296875 -0.796875 -0.96875 -1.3125q-0.65625 -0.515625 -1.765625 -0.515625q-0.90625 0 -1.6875 0.375q-0.765625 0.375 -1.375 1.078125q-0.609375 0.6875 -1.046875 1.625q-0.421875 0.9375 -0.65625 2.0625q-0.21875 1.109375 -0.21875 2.34375q0 1.703125 0.828125 2.65625q0.84375 0.9375 2.375 0.9375zm9.062836 1.59375l3.046875 -14.28125l1.765625 0l-0.34375 2.765625l0.140625 0q0.46875 -0.671875 1.125 -1.359375q0.671875 -0.703125 1.546875 -1.171875q0.875 -0.484375 2.0 -0.484375q1.5 0 2.28125 0.875q0.78125 0.875 0.921875 2.375l0.09375 0q0.515625 -0.796875 1.234375 -1.546875q0.734375 -0.75 1.671875 -1.21875q0.9375 -0.484375 2.046875 -0.484375q1.65625 0 2.546875 0.90625q0.90625 0.890625 0.90625 2.59375q0 0.609375 -0.078125 1.15625q-0.0625 0.546875 -0.203125 1.125l-1.859375 8.75l-2.1875 0l1.9375 -8.984375q0.109375 -0.59375 0.171875 -1.015625q0.0625 -0.4375 0.0625 -0.828125q0 -0.859375 -0.46875 -1.359375q-0.46875 -0.515625 -1.453125 -0.515625q-0.6875 0 -1.4375 0.375q-0.734375 0.375 -1.4375 1.140625q-0.6875 0.75 -1.25 1.921875q-0.5625 1.15625 -0.90625 2.71875l-1.390625 6.546875l-2.15625 0l1.90625 -8.953125q0.109375 -0.59375 0.171875 -1.03125q0.0625 -0.4375 0.0625 -0.75q0 -0.921875 -0.4375 -1.4375q-0.421875 -0.53125 -1.40625 -0.53125q-0.6875 0 -1.4375 0.359375q-0.75 0.359375 -1.453125 1.140625q-0.703125 0.78125 -1.296875 2.0q-0.578125 1.203125 -0.921875 2.90625l-1.328125 6.296875l-2.1875 0zm34.39392 0.265625q-1.40625 0 -2.484375 -0.21875q-1.0625 -0.203125 -1.96875 -0.640625l0 -2.171875q0.8125 0.421875 1.921875 0.765625q1.109375 0.34375 2.5625 0.34375q0.90625 0 1.71875 -0.203125q0.828125 -0.21875 1.46875 -0.65625q0.640625 -0.4375 1.015625 -1.125q0.375 -0.703125 0.375 -1.640625q0 -0.78125 -0.34375 -1.359375q-0.328125 -0.59375 -1.046875 -1.140625q-0.71875 -0.5625 -1.875 -1.203125q-0.984375 -0.59375 -1.78125 -1.234375q-0.78125 -0.640625 -1.234375 -1.5q-0.453125 -0.875 -0.453125 -2.109375q0 -1.328125 0.484375 -2.34375q0.5 -1.03125 1.359375 -1.71875q0.875 -0.703125 2.0 -1.0625q1.125 -0.359375 2.390625 -0.359375q1.5 0 2.59375 0.296875q1.109375 0.296875 2.140625 0.8125l-0.84375 1.875q-0.734375 -0.390625 -1.75 -0.703125q-1.015625 -0.328125 -2.140625 -0.328125q-0.828125 0 -1.53125 0.21875q-0.703125 0.203125 -1.25 0.640625q-0.53125 0.421875 -0.828125 1.0625q-0.296875 0.625 -0.296875 1.46875q0 0.84375 0.3125 1.40625q0.328125 0.5625 0.9375 1.015625q0.625 0.453125 1.53125 0.984375q1.15625 0.671875 2.046875 1.34375q0.890625 0.671875 1.375 1.5625q0.5 0.875 0.5 2.203125q0 1.421875 -0.5 2.5q-0.5 1.078125 -1.421875 1.796875q-0.921875 0.703125 -2.1875 1.0625q-1.265625 0.359375 -2.796875 0.359375zm13.2838745 0q-1.40625 0 -2.359375 -0.6875q-0.9375 -0.6875 -0.9375 -2.359375q0 -0.390625 0.046875 -0.859375q0.046875 -0.484375 0.171875 -1.0l1.671875 -7.984375l-2.1875 0l0.203125 -1.0l2.375 -0.90625l1.5625 -3.03125l1.28125 0l-0.71875 3.28125l3.671875 0l-0.328125 1.65625l-3.671875 0l-1.6875 8.015625q-0.09375 0.359375 -0.171875 0.78125q-0.0625 0.421875 -0.0625 0.796875q0 0.640625 0.328125 1.078125q0.34375 0.4375 1.140625 0.4375q0.5 0 0.9375 -0.078125q0.453125 -0.09375 0.96875 -0.265625l0 1.65625q-0.328125 0.15625 -0.984375 0.3125q-0.65625 0.15625 -1.25 0.15625zm10.447037 0q-1.59375 0 -2.765625 -0.640625q-1.15625 -0.65625 -1.78125 -1.859375q-0.609375 -1.203125 -0.609375 -2.890625q0 -1.71875 0.5 -3.390625q0.5 -1.6875 1.4375 -3.046875q0.9375 -1.359375 2.265625 -2.15625q1.328125 -0.8125 2.96875 -0.8125q1.953125 0 2.96875 0.875q1.015625 0.875 1.015625 2.421875q0 1.078125 -0.5 2.0q-0.5 0.90625 -1.53125 1.578125q-1.03125 0.65625 -2.625 1.03125q-1.578125 0.375 -3.734375 0.375l-0.5 0q-0.015625 0.234375 -0.046875 0.53125q-0.015625 0.28125 -0.015625 0.515625q0 1.71875 0.828125 2.703125q0.84375 0.96875 2.5 0.96875q1.03125 0 1.953125 -0.296875q0.921875 -0.296875 1.921875 -0.78125l0 1.859375q-0.96875 0.453125 -1.953125 0.734375q-0.96875 0.28125 -2.296875 0.28125zm-2.578125 -8.28125l0.3125 0q1.671875 0 3.0625 -0.296875q1.390625 -0.296875 2.234375 -0.96875q0.859375 -0.671875 0.859375 -1.78125q0 -0.734375 -0.5 -1.203125q-0.5 -0.46875 -1.515625 -0.46875q-0.890625 0 -1.765625 0.5625q-0.875 0.546875 -1.59375 1.609375q-0.703125 1.046875 -1.09375 2.546875zm8.815094 14.390625l4.375 -20.65625l1.765625 0l-0.359375 2.78125l0.09375 0q0.609375 -0.8125 1.34375 -1.484375q0.75 -0.6875 1.625 -1.109375q0.875 -0.421875 1.921875 -0.421875q1.171875 0 2.03125 0.5625q0.875 0.546875 1.359375 1.640625q0.5 1.09375 0.5 2.703125q0 1.53125 -0.3125 2.984375q-0.296875 1.453125 -0.890625 2.703125q-0.578125 1.234375 -1.4375 2.1875q-0.84375 0.9375 -1.9375 1.46875q-1.09375 0.53125 -2.421875 0.53125q-1.0 0 -1.71875 -0.359375q-0.71875 -0.359375 -1.21875 -0.9375q-0.484375 -0.59375 -0.765625 -1.28125l-0.125 0q-0.046875 0.484375 -0.15625 1.265625q-0.109375 0.765625 -0.234375 1.296875l-1.296875 6.125l-2.140625 0zm7.5 -7.90625q0.921875 0 1.671875 -0.453125q0.765625 -0.46875 1.375 -1.25q0.609375 -0.796875 1.03125 -1.828125q0.421875 -1.046875 0.640625 -2.21875q0.21875 -1.171875 0.21875 -2.375q0 -1.515625 -0.609375 -2.28125q-0.59375 -0.765625 -1.796875 -0.765625q-0.625 0 -1.265625 0.3125q-0.640625 0.296875 -1.234375 0.859375q-0.59375 0.546875 -1.125 1.296875q-0.515625 0.75 -0.90625 1.671875q-0.375 0.90625 -0.59375 1.921875q-0.21875 1.015625 -0.21875 2.078125q0 1.375 0.6875 2.203125q0.703125 0.828125 2.125 0.828125zm21.710083 1.796875q-2.3125 0 -3.5312347 -1.65625q-1.21875 -1.65625 -1.21875 -4.734375q0 -1.328125 0.1875 -2.8125q0.1875 -1.484375 0.578125 -2.96875q0.390625 -1.484375 1.015625 -2.8125q0.62498474 -1.34375 1.4999847 -2.375q0.890625 -1.046875 2.03125 -1.640625q1.15625 -0.609375 2.59375 -0.609375q1.21875 0 2.109375 0.40625q0.90625 0.40625 1.5 1.1875q0.59375 0.765625 0.875 1.890625q0.296875 1.125 0.296875 2.578125q0 1.59375 -0.203125 3.21875q-0.203125 1.625 -0.625 3.140625q-0.40625 1.5 -1.0625 2.8125q-0.640625 1.3125 -1.515625 2.296875q-0.875 0.96875 -2.015625 1.53125q-1.125 0.546875 -2.515625 0.546875zm0.234375 -1.859375q0.921875 0 1.671875 -0.5q0.75 -0.5 1.359375 -1.375q0.625 -0.875 1.078125 -2.03125q0.453125 -1.15625 0.75 -2.453125q0.3125 -1.3125 0.453125 -2.6875q0.15625 -1.375 0.15625 -2.6875q0 -2.015625 -0.65625 -3.078125q-0.65625 -1.078125 -2.0 -1.078125q-0.890625 0 -1.65625 0.5q-0.765625 0.5 -1.390625 1.375q-0.625 0.859375 -1.09375 1.984375q-0.46875 1.109375 -0.796875 2.390625q-0.328125 1.265625 -0.49998474 2.578125q-0.171875 1.296875 -0.171875 2.515625q0 2.203125 0.67185974 3.375q0.6875 1.171875 2.125 1.171875zm6.2372437 5.8125l0.375 -1.796875l3.09375 0l4.171875 -19.671875l-3.09375 0l0.390625 -1.796875l5.15625 0l-4.96875 23.265625l-5.125 0z" fill-rule="nonzero"/><path fill="#000000" d="m103.41207 872.866l-3.984375 0l0 -19.046875l10.921875 0l0 3.3125l-6.9375 0l0 4.90625l6.453125 0l0 3.296875l-6.453125 0l0 7.53125zm14.325775 -14.5625l0 14.5625l-3.984375 0l0 -14.5625l3.984375 0zm-1.984375 -5.703125q0.890625 0 1.515625 0.421875q0.640625 0.40625 0.640625 1.515625q0 1.109375 -0.640625 1.53125q-0.625 0.421875 -1.515625 0.421875q-0.90625 0 -1.53125 -0.421875q-0.625 -0.421875 -0.625 -1.53125q0 -1.109375 0.625 -1.515625q0.625 -0.421875 1.53125 -0.421875zm12.280235 17.359375q0.65625 0 1.265625 -0.125q0.625 -0.140625 1.234375 -0.328125l0 2.953125q-0.640625 0.28125 -1.59375 0.46875q-0.9375 0.203125 -2.0468674 0.203125q-1.3125 0 -2.34375 -0.421875q-1.03125 -0.4375 -1.625 -1.484375q-0.59375 -1.046875 -0.59375 -2.921875l0 -7.015625l-1.90625 0l0 -1.671875l2.1875 -1.34375l1.15625 -3.0625l2.53125 0l0 3.09375l4.0781174 0l0 2.984375l-4.0781174 0l0 7.015625q0 0.84375 0.46875 1.25q0.484375 0.40625 1.2656174 0.40625zm11.577789 0q0.65625 0 1.265625 -0.125q0.625 -0.140625 1.234375 -0.328125l0 2.953125q-0.640625 0.28125 -1.59375 0.46875q-0.9375 0.203125 -2.046875 0.203125q-1.3125 0 -2.34375 -0.421875q-1.03125 -0.4375 -1.625 -1.484375q-0.59375 -1.046875 -0.59375 -2.921875l0 -7.015625l-1.90625 0l0 -1.671875l2.1875 -1.34375l1.15625 -3.0625l2.53125 0l0 3.09375l4.078125 0l0 2.984375l-4.078125 0l0 7.015625q0 0.84375 0.46875 1.25q0.484375 0.40625 1.265625 0.40625zm9.421539 -11.65625l0 14.5625l-3.984375 0l0 -14.5625l3.984375 0zm-1.984375 -5.703125q0.890625 0 1.515625 0.421875q0.640625 0.40625 0.640625 1.515625q0 1.109375 -0.640625 1.53125q-0.625 0.421875 -1.515625 0.421875q-0.90625 0 -1.53125 -0.421875q-0.625 -0.421875 -0.625 -1.53125q0 -1.109375 0.625 -1.515625q0.625 -0.421875 1.53125 -0.421875zm14.420868 5.4375q2.328125 0 3.75 1.265625q1.421875 1.265625 1.421875 4.0625l0 9.5l-3.984375 0l0 -8.5q0 -1.5625 -0.5625 -2.359375q-0.5625 -0.796875 -1.78125 -0.796875q-1.8125 0 -2.484375 1.234375q-0.65625 1.234375 -0.65625 3.578125l0 6.84375l-3.984375 0l0 -14.5625l3.046875 0l0.53125 1.859375l0.21875 0q0.46875 -0.75 1.15625 -1.21875q0.703125 -0.46875 1.546875 -0.6875q0.859375 -0.21875 1.78125 -0.21875zm13.51384 21.234375q-3.046875 0 -4.65625 -1.0625q-1.609375 -1.0625 -1.609375 -2.96875q0 -1.3125 0.8125 -2.203125q0.828125 -0.890625 2.421875 -1.265625q-0.609375 -0.265625 -1.078125 -0.859375q-0.453125 -0.59375 -0.453125 -1.25q0 -0.828125 0.484375 -1.375q0.484375 -0.5625 1.390625 -1.09375q-1.140625 -0.5 -1.8125 -1.59375q-0.671875 -1.09375 -0.671875 -2.578125q0 -1.59375 0.6875 -2.703125q0.703125 -1.109375 2.03125 -1.6875q1.34375 -0.59375 3.265625 -0.59375q0.390625 0 0.921875 0.046875q0.546875 0.046875 0.984375 0.125q0.453125 0.0625 0.609375 0.09375l5.078125 0l0 2.015625l-2.28125 0.59375q0.3125 0.484375 0.46875 1.03125q0.15625 0.546875 0.15625 1.15625q0 2.34375 -1.640625 3.65625q-1.625 1.296875 -4.53125 1.296875q-0.6875 -0.03125 -1.296875 -0.09375q-0.296875 0.234375 -0.453125 0.5q-0.15625 0.25 -0.15625 0.53125q0 0.296875 0.234375 0.484375q0.25 0.1875 0.734375 0.28125q0.484375 0.09375 1.21875 0.09375l2.46875 0q2.40625 0 3.65625 1.03125q1.265625 1.03125 1.265625 3.03125q0 2.546875 -2.140625 3.953125q-2.125 1.40625 -6.109375 1.40625zm0.171875 -2.59375q1.421875 0 2.4375 -0.265625q1.015625 -0.265625 1.5625 -0.75q0.546875 -0.484375 0.546875 -1.171875q0 -0.546875 -0.3125 -0.875q-0.3125 -0.3125 -0.96875 -0.4375q-0.640625 -0.125 -1.640625 -0.125l-2.0625 0q-0.71875 0 -1.3125 0.234375q-0.578125 0.234375 -0.921875 0.65625q-0.328125 0.421875 -0.328125 0.984375q0 0.8125 0.78125 1.28125q0.796875 0.46875 2.21875 0.46875zm0.640625 -11.046875q1.109375 0 1.625 -0.6875q0.53125 -0.6875 0.53125 -1.875q0 -1.3125 -0.546875 -1.96875q-0.53125 -0.65625 -1.609375 -0.65625q-1.09375 0 -1.640625 0.65625q-0.546875 0.65625 -0.546875 1.96875q0 1.1875 0.53125 1.875q0.546875 0.6875 1.65625 0.6875zm30.152756 -0.078125q0 1.828125 -0.484375 3.234375q-0.484375 1.40625 -1.421875 2.375q-0.9375 0.96875 -2.25 1.46875q-1.296875 0.5 -2.9375 0.5q-1.53125 0 -2.828125 -0.5q-1.28125 -0.5 -2.21875 -1.46875q-0.9375 -0.96875 -1.453125 -2.375q-0.515625 -1.40625 -0.515625 -3.234375q0 -2.421875 0.859375 -4.09375q0.859375 -1.6875 2.4375 -2.546875q1.59375 -0.875 3.796875 -0.875q2.046875 0 3.625 0.875q1.578125 0.859375 2.484375 2.546875q0.90625 1.671875 0.90625 4.09375zm-10.0625 0q0 1.4375 0.3125 2.421875q0.3125 0.96875 0.96875 1.46875q0.671875 0.484375 1.734375 0.484375q1.0625 0 1.71875 -0.484375q0.65625 -0.5 0.953125 -1.46875q0.3125 -0.984375 0.3125 -2.421875q0 -1.4375 -0.3125 -2.390625q-0.296875 -0.96875 -0.96875 -1.4375q-0.65625 -0.484375 -1.71875 -0.484375q-1.578125 0 -2.296875 1.078125q-0.703125 1.078125 -0.703125 3.234375zm26.716766 -7.25l0 14.5625l-3.0625 0l-0.53125 -1.859375l-0.203125 0q-0.46875 0.734375 -1.171875 1.203125q-0.703125 0.46875 -1.546875 0.6875q-0.84375 0.234375 -1.765625 0.234375q-1.5625 0 -2.71875 -0.546875q-1.15625 -0.5625 -1.8125 -1.734375q-0.640625 -1.171875 -0.640625 -3.046875l0 -9.5l3.984375 0l0 8.5q0 1.5625 0.546875 2.359375q0.5625 0.796875 1.796875 0.796875q1.203125 0 1.890625 -0.546875q0.6875 -0.5625 0.96875 -1.625q0.28125 -1.078125 0.28125 -2.625l0 -6.859375l3.984375 0zm10.295074 11.65625q0.65625 0 1.265625 -0.125q0.625 -0.140625 1.234375 -0.328125l0 2.953125q-0.640625 0.28125 -1.59375 0.46875q-0.9375 0.203125 -2.046875 0.203125q-1.3125 0 -2.34375 -0.421875q-1.03125 -0.4375 -1.625 -1.484375q-0.59375 -1.046875 -0.59375 -2.921875l0 -7.015625l-1.90625 0l0 -1.671875l2.1875 -1.34375l1.15625 -3.0625l2.53125 0l0 3.09375l4.078125 0l0 2.984375l-4.078125 0l0 7.015625q0 0.84375 0.46875 1.25q0.484375 0.40625 1.265625 0.40625zm13.546539 -11.921875q2.453125 0 3.96875 1.921875q1.53125 1.90625 1.53125 5.59375q0 2.484375 -0.71875 4.171875q-0.71875 1.6875 -1.984375 2.546875q-1.265625 0.859375 -2.90625 0.859375q-1.046875 0 -1.8125 -0.265625q-0.75 -0.28125 -1.28125 -0.703125q-0.53125 -0.421875 -0.921875 -0.90625l-0.21875 0q0.109375 0.53125 0.15625 1.078125q0.0625 0.546875 0.0625 1.0625l0 5.875l-3.984375 0l0 -20.96875l3.234375 0l0.5625 1.890625l0.1875 0q0.390625 -0.578125 0.9375 -1.078125q0.5625 -0.5 1.34375 -0.78125q0.796875 -0.296875 1.84375 -0.296875zm-1.28125 3.171875q-1.046875 0 -1.65625 0.4375q-0.609375 0.421875 -0.890625 1.28125q-0.28125 0.859375 -0.296875 2.171875l0 0.4375q0 1.40625 0.265625 2.390625q0.265625 0.96875 0.890625 1.484375q0.640625 0.5 1.734375 0.5q0.921875 0 1.5 -0.5q0.59375 -0.515625 0.875 -1.5q0.296875 -0.984375 0.296875 -2.40625q0 -2.140625 -0.671875 -3.21875q-0.65625 -1.078125 -2.046875 -1.078125zm23.425156 -2.90625l0 14.5625l-3.0625 0l-0.53125 -1.859375l-0.203125 0q-0.46875 0.734375 -1.171875 1.203125q-0.703125 0.46875 -1.546875 0.6875q-0.84375 0.234375 -1.765625 0.234375q-1.5625 0 -2.71875 -0.546875q-1.15625 -0.5625 -1.8124847 -1.734375q-0.640625 -1.171875 -0.640625 -3.046875l0 -9.5l3.9843597 0l0 8.5q0 1.5625 0.546875 2.359375q0.5625 0.796875 1.796875 0.796875q1.203125 0 1.890625 -0.546875q0.6875 -0.5625 0.96875 -1.625q0.28125 -1.078125 0.28125 -2.625l0 -6.859375l3.984375 0zm10.295105 11.65625q0.65625 0 1.265625 -0.125q0.625 -0.140625 1.234375 -0.328125l0 2.953125q-0.640625 0.28125 -1.59375 0.46875q-0.9375 0.203125 -2.046875 0.203125q-1.3125 0 -2.34375 -0.421875q-1.03125 -0.4375 -1.625 -1.484375q-0.59375 -1.046875 -0.59375 -2.921875l0 -7.015625l-1.90625 0l0 -1.671875l2.1875 -1.34375l1.15625 -3.0625l2.53125 0l0 3.09375l4.078125 0l0 2.984375l-4.078125 0l0 7.015625q0 0.84375 0.46875 1.25q0.484375 0.40625 1.265625 0.40625zm15.593414 -1.421875q0 1.484375 -0.703125 2.515625q-0.6875 1.015625 -2.0625 1.546875q-1.375 0.53125 -3.4375 0.53125q-1.53125 0 -2.625 -0.203125q-1.078125 -0.1875 -2.1875 -0.65625l0 -3.28125q1.1875 0.546875 2.546875 0.890625q1.359375 0.34375 2.390625 0.34375q1.15625 0 1.65625 -0.34375q0.515625 -0.34375 0.515625 -0.90625q0 -0.375 -0.203125 -0.65625q-0.203125 -0.296875 -0.875 -0.671875q-0.65625 -0.375 -2.078125 -0.96875q-1.375 -0.578125 -2.25 -1.15625q-0.875 -0.59375 -1.296875 -1.390625q-0.421875 -0.796875 -0.421875 -2.03125q0 -2.015625 1.5625 -3.03125q1.578125 -1.03125 4.203125 -1.03125q1.359375 0 2.578125 0.28125q1.234375 0.265625 2.53125 0.859375l-1.1875 2.859375q-1.078125 -0.46875 -2.046875 -0.765625q-0.953125 -0.296875 -1.9375 -0.296875q-0.875 0 -1.328125 0.234375q-0.4375 0.234375 -0.4375 0.71875q0 0.34375 0.21875 0.625q0.234375 0.265625 0.890625 0.609375q0.671875 0.328125 1.9375 0.84375q1.234375 0.515625 2.140625 1.078125q0.921875 0.546875 1.40625 1.359375q0.5 0.8125 0.5 2.09375z" fill-rule="nonzero"/><path fill="#000000" fill-opacity="0.0" d="m79.85889 914.1792l0 36.031494l30.866142 0" fill-rule="evenodd"/><path stroke="#595959" stroke-width="4.0" stroke-linejoin="round" stroke-linecap="butt" d="m79.85889 914.1792l0 36.031494l30.866142 0" fill-rule="evenodd"/><path fill="#000000" fill-opacity="0.0" d="m508.7511 718.7031l0 231.49603l-172.09448 0" fill-rule="evenodd"/><path stroke="#595959" stroke-width="4.0" stroke-linejoin="round" stroke-linecap="butt" d="m508.7511 718.70306l0 231.4961l-148.09448 0" fill-rule="evenodd"/><path fill="#595959" stroke="#595959" stroke-width="4.0" stroke-linecap="butt" d="m360.65662 943.5922l-18.152374 6.6069336l18.152374 6.6069336z" fill-rule="evenodd"/></g></svg>